<svg width="139" height="42" viewBox="0 0 139 42" fill="none" xmlns="http://www.w3.org/2000/svg">
<path fill-rule="evenodd" clip-rule="evenodd" d="M86.0619 32.7679C78.0158 38.6987 66.3533 41.8629 56.3121 41.8629C42.2326 41.8629 29.5576 36.6554 19.9683 27.9945C19.2151 27.3132 19.8901 26.3851 20.7941 26.9156C31.1427 32.9367 43.9383 36.559 57.1559 36.559C66.07 36.559 75.8762 34.7147 84.8928 30.8875C86.2548 30.3089 87.3939 31.7795 86.0619 32.7679" fill="#FF9900"/>
<path fill-rule="evenodd" clip-rule="evenodd" d="M89.4071 28.9407C88.3825 27.6267 82.6084 28.3199 80.0167 28.6273C79.2272 28.7238 79.1067 28.0366 79.8179 27.5424C84.4166 24.3059 91.9626 25.2401 92.8425 26.3249C93.7224 27.4159 92.6135 34.9799 88.292 38.5901C87.629 39.1447 86.9961 38.8493 87.2915 38.114C88.2619 35.6912 90.4377 30.2607 89.4071 28.9407" fill="#FF9900"/>
<path fill-rule="evenodd" clip-rule="evenodd" d="M80.1975 4.69358V1.54745C80.1975 1.07128 80.5592 0.751854 80.9931 0.751854H95.0785C95.5306 0.751854 95.8923 1.07724 95.8923 1.54745V4.2415C95.8862 4.69358 95.5065 5.28425 94.8315 6.21845L87.5327 16.6393C90.2448 16.5732 93.1077 16.9769 95.5667 18.3632C96.1213 18.6765 96.2719 19.1347 96.3142 19.5866V22.9438C96.3142 23.4018 95.8078 23.9382 95.2775 23.661C90.9439 21.3889 85.1881 21.1417 80.3965 23.6851C79.9083 23.9504 79.396 23.4199 79.396 22.9619V19.7736C79.396 19.2613 79.4019 18.3873 79.9142 17.6098L88.3703 5.48322H81.0111C80.5592 5.48322 80.1975 5.16379 80.1975 4.69358V4.69358ZM28.8162 24.324H24.5309C24.121 24.2939 23.7956 23.9865 23.7654 23.5947V1.60173C23.7654 1.1617 24.1331 0.812085 24.5911 0.812085H28.5871C29.003 0.830085 29.3345 1.14965 29.3647 1.54732V4.42247H29.4431C30.4857 1.64396 32.4445 0.348239 35.0844 0.348239C37.7664 0.348239 39.4421 1.64396 40.6475 4.42247C41.6842 1.64396 44.0408 0.348239 46.5662 0.348239C48.3622 0.348239 50.3271 1.08956 51.5264 2.75304C52.8825 4.6033 52.6053 7.29139 52.6053 9.64801L52.5992 23.5285C52.5992 23.9685 52.2316 24.3241 51.7736 24.3241H47.4943C47.0664 24.2941 46.7228 23.9505 46.7228 23.5285V11.872C46.7228 10.9437 46.8072 8.62921 46.6023 7.74942C46.2829 6.27273 45.3246 5.85679 44.0829 5.85679C43.0462 5.85679 41.9614 6.54993 41.5213 7.65901C41.0814 8.76808 41.1237 10.6243 41.1237 11.872V23.5284C41.1237 23.9684 40.7559 24.324 40.2979 24.324H36.0186C35.5847 24.2939 35.2471 23.9504 35.2471 23.5284L35.2411 11.872C35.2411 9.41885 35.6449 5.80875 32.6012 5.80875C29.5214 5.80875 29.6419 9.32844 29.6419 11.872V23.5284C29.6419 23.9684 29.2743 24.324 28.8162 24.324V24.324ZM108.019 0.3481C114.377 0.3481 117.819 5.80861 117.819 12.7519C117.819 19.4601 114.016 24.7821 108.019 24.7821C101.775 24.7821 98.3754 19.3215 98.3754 12.5168C98.3754 5.67001 101.817 0.3481 108.019 0.3481V0.3481ZM108.055 4.83827C104.897 4.83827 104.698 9.14165 104.698 11.8237C104.698 14.5119 104.656 20.2496 108.019 20.2496C111.34 20.2496 111.496 15.6208 111.496 12.8001C111.496 10.9437 111.418 8.72571 110.858 6.96587C110.375 5.4349 109.417 4.83827 108.055 4.83827H108.055ZM126.064 24.324H121.797C121.369 24.2939 121.025 23.9504 121.025 23.5284L121.019 1.52932C121.055 1.12556 121.411 0.812085 121.845 0.812085H125.817C126.191 0.830085 126.498 1.08347 126.582 1.42685V4.79008H126.661C127.86 1.78256 129.542 0.3481 132.501 0.3481C134.424 0.3481 136.298 1.0411 137.504 2.93968C138.625 4.69953 138.625 7.65901 138.625 9.78661V23.6308C138.576 24.0166 138.221 24.324 137.799 24.324H133.502C133.11 24.2939 132.784 24.0045 132.742 23.6308V11.6851C132.742 9.28025 133.019 5.76028 130.06 5.76028C129.018 5.76028 128.059 6.45951 127.583 7.52027C126.98 8.86445 126.902 10.2024 126.902 11.6852V23.5284C126.896 23.9684 126.522 24.324 126.064 24.324V24.324ZM68.969 13.8187C68.969 15.4882 69.0112 16.8805 68.1673 18.3631C67.4863 19.5686 66.4015 20.3098 65.202 20.3098C63.5567 20.3098 62.5923 19.0563 62.5923 17.2059C62.5923 13.5535 65.8651 12.8905 68.969 12.8905V13.8187V13.8187ZM73.2904 24.2637C73.0072 24.5168 72.5974 24.535 72.2779 24.3662C70.8555 23.1848 70.5963 22.6364 69.8189 21.5093C67.4682 23.9082 65.7988 24.6254 62.755 24.6254C59.1447 24.6254 56.3421 22.4013 56.3421 17.9474C56.3421 14.4697 58.2226 12.101 60.9107 10.9437C63.2372 9.91911 66.4858 9.73828 68.9691 9.45499V8.90059C68.9691 7.88193 69.0473 6.67648 68.4446 5.79656C67.9264 5.00705 66.9257 4.68153 66.0398 4.68153C64.4064 4.68153 62.9539 5.51922 62.5984 7.25511C62.5259 7.64087 62.2427 8.02053 61.8509 8.03867L57.6982 7.59268C57.3487 7.51431 56.9569 7.23102 57.0593 6.69462C58.0117 1.65601 62.5682 0.137085 66.6427 0.137085C68.7281 0.137085 71.4523 0.691623 73.0978 2.27078C75.183 4.21755 74.9842 6.81508 74.9842 9.64191V16.3199C74.9842 18.3271 75.816 19.2068 76.5995 20.2918C76.8708 20.6776 76.9309 21.1417 76.5814 21.4309C75.7075 22.1602 74.1524 23.5163 73.2966 24.2758L73.2906 24.2637H73.2904ZM12.79 13.8187C12.79 15.4882 12.8322 16.8805 11.9883 18.3631C11.3074 19.5686 10.2285 20.3098 9.02303 20.3098C7.3777 20.3098 6.41926 19.0563 6.41926 17.2059C6.41926 13.5535 9.69208 12.8905 12.79 12.8905V13.8187ZM17.1114 24.2637C16.8282 24.5168 16.4184 24.535 16.099 24.3662C14.6766 23.1848 14.4233 22.6364 13.6399 21.5093C11.2892 23.9082 9.6259 24.6254 6.576 24.6254C2.97185 24.6254 0.163158 22.4013 0.163158 17.9474C0.163158 14.4697 2.0497 12.101 4.7317 10.9437C7.05826 9.91911 10.3068 9.73828 12.79 9.45499V8.90059C12.79 7.88193 12.8684 6.67648 12.2716 5.79656C11.7473 5.00705 10.7469 4.68153 9.86682 4.68153C8.23353 4.68153 6.77497 5.51922 6.41926 7.25511C6.34699 7.64087 6.0637 8.02053 5.67794 8.03867L1.51925 7.59268C1.16964 7.51431 0.78402 7.23102 0.880389 6.69462C1.83868 1.65601 6.38922 0.137085 10.4636 0.137085C12.5488 0.137085 15.2732 0.691623 16.9187 2.27078C19.0039 4.21755 18.8051 6.81508 18.8051 9.64191V16.3199C18.8051 18.3271 19.6368 19.2068 20.4204 20.2918C20.6977 20.6776 20.7579 21.1417 20.4083 21.4309C19.5343 22.1602 17.9794 23.5163 17.1236 24.2758L17.1115 24.2637" fill="black"/>
</svg>
