<svg width="1440" height="145" viewBox="0 0 1440 145" fill="none" xmlns="http://www.w3.org/2000/svg">
<rect width="1440" height="145" fill="#DDE3F0"/>
<path d="M106.56 53.64H102.08V51H114.28V53.64H109.8V65H106.56V53.64ZM118.549 55.66C118.922 55.14 119.422 54.7467 120.049 54.48C120.689 54.2133 121.422 54.08 122.249 54.08V56.96C121.902 56.9333 121.669 56.92 121.549 56.92C120.656 56.92 119.956 57.1733 119.449 57.68C118.942 58.1733 118.689 58.92 118.689 59.92V65H115.569V54.24H118.549V55.66ZM135.022 54.24V65H132.062V63.72C131.649 64.1867 131.156 64.5467 130.582 64.8C130.009 65.04 129.389 65.16 128.722 65.16C127.309 65.16 126.189 64.7533 125.362 63.94C124.536 63.1267 124.122 61.92 124.122 60.32V54.24H127.242V59.86C127.242 61.5933 127.969 62.46 129.422 62.46C130.169 62.46 130.769 62.22 131.222 61.74C131.676 61.2467 131.902 60.52 131.902 59.56V54.24H135.022ZM141.533 65.16C140.639 65.16 139.766 65.0533 138.913 64.84C138.059 64.6133 137.379 64.3333 136.873 64L137.913 61.76C138.393 62.0667 138.973 62.32 139.653 62.52C140.333 62.7067 140.999 62.8 141.653 62.8C142.973 62.8 143.633 62.4733 143.633 61.82C143.633 61.5133 143.453 61.2933 143.093 61.16C142.733 61.0267 142.179 60.9133 141.433 60.82C140.553 60.6867 139.826 60.5333 139.253 60.36C138.679 60.1867 138.179 59.88 137.753 59.44C137.339 59 137.133 58.3733 137.133 57.56C137.133 56.88 137.326 56.28 137.713 55.76C138.113 55.2267 138.686 54.8133 139.433 54.52C140.193 54.2267 141.086 54.08 142.113 54.08C142.873 54.08 143.626 54.1667 144.373 54.34C145.133 54.5 145.759 54.7267 146.253 55.02L145.213 57.24C144.266 56.7067 143.233 56.44 142.113 56.44C141.446 56.44 140.946 56.5333 140.613 56.72C140.279 56.9067 140.113 57.1467 140.113 57.44C140.113 57.7733 140.293 58.0067 140.653 58.14C141.013 58.2733 141.586 58.4 142.373 58.52C143.253 58.6667 143.973 58.8267 144.533 59C145.093 59.16 145.579 59.46 145.993 59.9C146.406 60.34 146.613 60.9533 146.613 61.74C146.613 62.4067 146.413 63 146.013 63.52C145.613 64.04 145.026 64.4467 144.253 64.74C143.493 65.02 142.586 65.16 141.533 65.16ZM155.478 64.48C155.171 64.7067 154.791 64.88 154.338 65C153.898 65.1067 153.431 65.16 152.938 65.16C151.658 65.16 150.664 64.8333 149.958 64.18C149.264 63.5267 148.918 62.5667 148.918 61.3V56.88H147.258V54.48H148.918V51.86H152.038V54.48H154.718V56.88H152.038V61.26C152.038 61.7133 152.151 62.0667 152.378 62.32C152.618 62.56 152.951 62.68 153.378 62.68C153.871 62.68 154.291 62.5467 154.638 62.28L155.478 64.48ZM167.437 59.66C167.437 59.7 167.417 59.98 167.377 60.5H159.237C159.384 61.1667 159.73 61.6933 160.277 62.08C160.824 62.4667 161.504 62.66 162.317 62.66C162.877 62.66 163.37 62.58 163.797 62.42C164.237 62.2467 164.644 61.98 165.017 61.62L166.677 63.42C165.664 64.58 164.184 65.16 162.237 65.16C161.024 65.16 159.95 64.9267 159.017 64.46C158.084 63.98 157.364 63.32 156.857 62.48C156.35 61.64 156.097 60.6867 156.097 59.62C156.097 58.5667 156.344 57.62 156.837 56.78C157.344 55.9267 158.03 55.2667 158.897 54.8C159.777 54.32 160.757 54.08 161.837 54.08C162.89 54.08 163.844 54.3067 164.697 54.76C165.55 55.2133 166.217 55.8667 166.697 56.72C167.19 57.56 167.437 58.54 167.437 59.66ZM161.857 56.44C161.15 56.44 160.557 56.64 160.077 57.04C159.597 57.44 159.304 57.9867 159.197 58.68H164.497C164.39 58 164.097 57.46 163.617 57.06C163.137 56.6467 162.55 56.44 161.857 56.44ZM180.474 50.16V65H177.494V63.76C176.721 64.6933 175.601 65.16 174.134 65.16C173.121 65.16 172.201 64.9333 171.374 64.48C170.561 64.0267 169.921 63.38 169.454 62.54C168.988 61.7 168.754 60.7267 168.754 59.62C168.754 58.5133 168.988 57.54 169.454 56.7C169.921 55.86 170.561 55.2133 171.374 54.76C172.201 54.3067 173.121 54.08 174.134 54.08C175.508 54.08 176.581 54.5133 177.354 55.38V50.16H180.474ZM174.674 62.6C175.461 62.6 176.114 62.3333 176.634 61.8C177.154 61.2533 177.414 60.5267 177.414 59.62C177.414 58.7133 177.154 57.9933 176.634 57.46C176.114 56.9133 175.461 56.64 174.674 56.64C173.874 56.64 173.214 56.9133 172.694 57.46C172.174 57.9933 171.914 58.7133 171.914 59.62C171.914 60.5267 172.174 61.2533 172.694 61.8C173.214 62.3333 173.874 62.6 174.674 62.6ZM195.386 54.08C196.386 54.08 197.293 54.3133 198.106 54.78C198.933 55.2333 199.579 55.88 200.046 56.72C200.513 57.5467 200.746 58.5133 200.746 59.62C200.746 60.7267 200.513 61.7 200.046 62.54C199.579 63.3667 198.933 64.0133 198.106 64.48C197.293 64.9333 196.386 65.16 195.386 65.16C193.906 65.16 192.779 64.6933 192.006 63.76V65H189.026V50.16H192.146V55.38C192.933 54.5133 194.013 54.08 195.386 54.08ZM194.846 62.6C195.646 62.6 196.299 62.3333 196.806 61.8C197.326 61.2533 197.586 60.5267 197.586 59.62C197.586 58.7133 197.326 57.9933 196.806 57.46C196.299 56.9133 195.646 56.64 194.846 56.64C194.046 56.64 193.386 56.9133 192.866 57.46C192.359 57.9933 192.106 58.7133 192.106 59.62C192.106 60.5267 192.359 61.2533 192.866 61.8C193.386 62.3333 194.046 62.6 194.846 62.6ZM213.222 54.24L208.362 65.66C207.868 66.9 207.255 67.7733 206.522 68.28C205.802 68.7867 204.928 69.04 203.902 69.04C203.342 69.04 202.788 68.9533 202.242 68.78C201.695 68.6067 201.248 68.3667 200.902 68.06L202.042 65.84C202.282 66.0533 202.555 66.22 202.862 66.34C203.182 66.46 203.495 66.52 203.802 66.52C204.228 66.52 204.575 66.4133 204.842 66.2C205.108 66 205.348 65.66 205.562 65.18L205.602 65.08L200.942 54.24H204.162L207.182 61.54L210.222 54.24H213.222ZM224.899 51V65H221.659V53.6H218.859V51H224.899ZM229.191 61.28C229.751 61.28 230.211 61.46 230.571 61.82C230.931 62.1667 231.111 62.6267 231.111 63.2C231.111 63.4667 231.077 63.7333 231.011 64C230.944 64.2667 230.797 64.6667 230.571 65.2L229.431 68.08H227.451L228.331 64.9C227.997 64.7667 227.731 64.5533 227.531 64.26C227.344 63.9533 227.251 63.6 227.251 63.2C227.251 62.6267 227.431 62.1667 227.791 61.82C228.164 61.46 228.631 61.28 229.191 61.28ZM237.365 56.26C239.338 56.26 240.792 56.6533 241.725 57.44C242.672 58.2267 243.145 59.28 243.145 60.6C243.145 61.4533 242.932 62.2333 242.505 62.94C242.078 63.6333 241.425 64.1933 240.545 64.62C239.678 65.0333 238.605 65.24 237.325 65.24C236.338 65.24 235.365 65.1133 234.405 64.86C233.458 64.5933 232.652 64.22 231.985 63.74L233.265 61.26C233.798 61.66 234.412 61.9733 235.105 62.2C235.798 62.4133 236.512 62.52 237.245 62.52C238.058 62.52 238.698 62.36 239.165 62.04C239.632 61.72 239.865 61.2733 239.865 60.7C239.865 60.1 239.618 59.6467 239.125 59.34C238.645 59.0333 237.805 58.88 236.605 58.88H233.025L233.745 51H242.285V53.6H236.445L236.225 56.26H237.365ZM250.46 65.24C249.3 65.24 248.266 64.9533 247.36 64.38C246.453 63.8067 245.74 62.98 245.22 61.9C244.713 60.8067 244.46 59.5067 244.46 58C244.46 56.4933 244.713 55.2 245.22 54.12C245.74 53.0267 246.453 52.1933 247.36 51.62C248.266 51.0467 249.3 50.76 250.46 50.76C251.62 50.76 252.653 51.0467 253.56 51.62C254.466 52.1933 255.173 53.0267 255.68 54.12C256.2 55.2 256.46 56.4933 256.46 58C256.46 59.5067 256.2 60.8067 255.68 61.9C255.173 62.98 254.466 63.8067 253.56 64.38C252.653 64.9533 251.62 65.24 250.46 65.24ZM250.46 62.5C251.313 62.5 251.98 62.1333 252.46 61.4C252.953 60.6667 253.2 59.5333 253.2 58C253.2 56.4667 252.953 55.3333 252.46 54.6C251.98 53.8667 251.313 53.5 250.46 53.5C249.62 53.5 248.953 53.8667 248.46 54.6C247.98 55.3333 247.74 56.4667 247.74 58C247.74 59.5333 247.98 60.6667 248.46 61.4C248.953 62.1333 249.62 62.5 250.46 62.5ZM264.034 65.24C262.874 65.24 261.841 64.9533 260.934 64.38C260.027 63.8067 259.314 62.98 258.794 61.9C258.287 60.8067 258.034 59.5067 258.034 58C258.034 56.4933 258.287 55.2 258.794 54.12C259.314 53.0267 260.027 52.1933 260.934 51.62C261.841 51.0467 262.874 50.76 264.034 50.76C265.194 50.76 266.227 51.0467 267.134 51.62C268.041 52.1933 268.747 53.0267 269.254 54.12C269.774 55.2 270.034 56.4933 270.034 58C270.034 59.5067 269.774 60.8067 269.254 61.9C268.747 62.98 268.041 63.8067 267.134 64.38C266.227 64.9533 265.194 65.24 264.034 65.24ZM264.034 62.5C264.887 62.5 265.554 62.1333 266.034 61.4C266.527 60.6667 266.774 59.5333 266.774 58C266.774 56.4667 266.527 55.3333 266.034 54.6C265.554 53.8667 264.887 53.5 264.034 53.5C263.194 53.5 262.527 53.8667 262.034 54.6C261.554 55.3333 261.314 56.4667 261.314 58C261.314 59.5333 261.554 60.6667 262.034 61.4C262.527 62.1333 263.194 62.5 264.034 62.5ZM281.666 59.22H278.186V62.62H275.606V59.22H272.146V56.78H275.606V53.38H278.186V56.78H281.666V59.22Z" fill="black"/>
<path d="M110.36 101.24C108.933 101.24 107.64 100.933 106.48 100.32C105.333 99.6933 104.427 98.8333 103.76 97.74C103.107 96.6333 102.78 95.3867 102.78 94C102.78 92.6133 103.107 91.3733 103.76 90.28C104.427 89.1733 105.333 88.3133 106.48 87.7C107.64 87.0733 108.94 86.76 110.38 86.76C111.593 86.76 112.687 86.9733 113.66 87.4C114.647 87.8267 115.473 88.44 116.14 89.24L114.06 91.16C113.113 90.0667 111.94 89.52 110.54 89.52C109.673 89.52 108.9 89.7133 108.22 90.1C107.54 90.4733 107.007 91 106.62 91.68C106.247 92.36 106.06 93.1333 106.06 94C106.06 94.8667 106.247 95.64 106.62 96.32C107.007 97 107.54 97.5333 108.22 97.92C108.9 98.2933 109.673 98.48 110.54 98.48C111.94 98.48 113.113 97.9267 114.06 96.82L116.14 98.74C115.473 99.5533 114.647 100.173 113.66 100.6C112.673 101.027 111.573 101.24 110.36 101.24ZM122.857 101.16C121.724 101.16 120.704 100.927 119.797 100.46C118.904 99.98 118.204 99.32 117.697 98.48C117.19 97.64 116.937 96.6867 116.937 95.62C116.937 94.5533 117.19 93.6 117.697 92.76C118.204 91.92 118.904 91.2667 119.797 90.8C120.704 90.32 121.724 90.08 122.857 90.08C123.99 90.08 125.004 90.32 125.897 90.8C126.79 91.2667 127.49 91.92 127.997 92.76C128.504 93.6 128.757 94.5533 128.757 95.62C128.757 96.6867 128.504 97.64 127.997 98.48C127.49 99.32 126.79 99.98 125.897 100.46C125.004 100.927 123.99 101.16 122.857 101.16ZM122.857 98.6C123.657 98.6 124.31 98.3333 124.817 97.8C125.337 97.2533 125.597 96.5267 125.597 95.62C125.597 94.7133 125.337 93.9933 124.817 93.46C124.31 92.9133 123.657 92.64 122.857 92.64C122.057 92.64 121.397 92.9133 120.877 93.46C120.357 93.9933 120.097 94.7133 120.097 95.62C120.097 96.5267 120.357 97.2533 120.877 97.8C121.397 98.3333 122.057 98.6 122.857 98.6ZM144.622 90.08C145.969 90.08 147.036 90.48 147.822 91.28C148.622 92.0667 149.022 93.2533 149.022 94.84V101H145.902V95.32C145.902 94.4667 145.722 93.8333 145.362 93.42C145.016 92.9933 144.516 92.78 143.862 92.78C143.129 92.78 142.549 93.02 142.122 93.5C141.696 93.9667 141.482 94.6667 141.482 95.6V101H138.362V95.32C138.362 93.6267 137.682 92.78 136.322 92.78C135.602 92.78 135.029 93.02 134.602 93.5C134.176 93.9667 133.962 94.6667 133.962 95.6V101H130.842V90.24H133.822V91.48C134.222 91.0267 134.709 90.68 135.282 90.44C135.869 90.2 136.509 90.08 137.202 90.08C137.962 90.08 138.649 90.2333 139.262 90.54C139.876 90.8333 140.369 91.2667 140.742 91.84C141.182 91.28 141.736 90.8467 142.402 90.54C143.082 90.2333 143.822 90.08 144.622 90.08ZM158.179 90.08C159.179 90.08 160.086 90.3133 160.899 90.78C161.726 91.2333 162.372 91.88 162.839 92.72C163.306 93.5467 163.539 94.5133 163.539 95.62C163.539 96.7267 163.306 97.7 162.839 98.54C162.372 99.3667 161.726 100.013 160.899 100.48C160.086 100.933 159.179 101.16 158.179 101.16C156.806 101.16 155.726 100.727 154.939 99.86V104.88H151.819V90.24H154.799V91.48C155.572 90.5467 156.699 90.08 158.179 90.08ZM157.639 98.6C158.439 98.6 159.092 98.3333 159.599 97.8C160.119 97.2533 160.379 96.5267 160.379 95.62C160.379 94.7133 160.119 93.9933 159.599 93.46C159.092 92.9133 158.439 92.64 157.639 92.64C156.839 92.64 156.179 92.9133 155.659 93.46C155.152 93.9933 154.899 94.7133 154.899 95.62C154.899 96.5267 155.152 97.2533 155.659 97.8C156.179 98.3333 156.839 98.6 157.639 98.6ZM169.792 90.08C171.458 90.08 172.738 90.48 173.632 91.28C174.525 92.0667 174.972 93.26 174.972 94.86V101H172.052V99.66C171.465 100.66 170.372 101.16 168.772 101.16C167.945 101.16 167.225 101.02 166.612 100.74C166.012 100.46 165.552 100.073 165.232 99.58C164.912 99.0867 164.752 98.5267 164.752 97.9C164.752 96.9 165.125 96.1133 165.872 95.54C166.632 94.9667 167.798 94.68 169.372 94.68H171.852C171.852 94 171.645 93.48 171.232 93.12C170.818 92.7467 170.198 92.56 169.372 92.56C168.798 92.56 168.232 92.6533 167.672 92.84C167.125 93.0133 166.658 93.2533 166.272 93.56L165.152 91.38C165.738 90.9667 166.438 90.6467 167.252 90.42C168.078 90.1933 168.925 90.08 169.792 90.08ZM169.552 99.06C170.085 99.06 170.558 98.94 170.972 98.7C171.385 98.4467 171.678 98.08 171.852 97.6V96.5H169.712C168.432 96.5 167.792 96.92 167.792 97.76C167.792 98.16 167.945 98.48 168.252 98.72C168.572 98.9467 169.005 99.06 169.552 99.06ZM184.335 90.08C185.669 90.08 186.742 90.48 187.555 91.28C188.382 92.08 188.795 93.2667 188.795 94.84V101H185.675V95.32C185.675 94.4667 185.489 93.8333 185.115 93.42C184.742 92.9933 184.202 92.78 183.495 92.78C182.709 92.78 182.082 93.0267 181.615 93.52C181.149 94 180.915 94.72 180.915 95.68V101H177.795V90.24H180.775V91.5C181.189 91.0467 181.702 90.7 182.315 90.46C182.929 90.2067 183.602 90.08 184.335 90.08ZM191.624 90.24H194.744V101H191.624V90.24ZM193.184 88.74C192.61 88.74 192.144 88.5733 191.784 88.24C191.424 87.9067 191.244 87.4933 191.244 87C191.244 86.5067 191.424 86.0933 191.784 85.76C192.144 85.4267 192.61 85.26 193.184 85.26C193.757 85.26 194.224 85.42 194.584 85.74C194.944 86.06 195.124 86.46 195.124 86.94C195.124 87.46 194.944 87.8933 194.584 88.24C194.224 88.5733 193.757 88.74 193.184 88.74ZM208.179 95.66C208.179 95.7 208.159 95.98 208.119 96.5H199.979C200.126 97.1667 200.473 97.6933 201.019 98.08C201.566 98.4667 202.246 98.66 203.059 98.66C203.619 98.66 204.113 98.58 204.539 98.42C204.979 98.2467 205.386 97.98 205.759 97.62L207.419 99.42C206.406 100.58 204.926 101.16 202.979 101.16C201.766 101.16 200.693 100.927 199.759 100.46C198.826 99.98 198.106 99.32 197.599 98.48C197.093 97.64 196.839 96.6867 196.839 95.62C196.839 94.5667 197.086 93.62 197.579 92.78C198.086 91.9267 198.773 91.2667 199.639 90.8C200.519 90.32 201.499 90.08 202.579 90.08C203.633 90.08 204.586 90.3067 205.439 90.76C206.293 91.2133 206.959 91.8667 207.439 92.72C207.933 93.56 208.179 94.54 208.179 95.66ZM202.599 92.44C201.893 92.44 201.299 92.64 200.819 93.04C200.339 93.44 200.046 93.9867 199.939 94.68H205.239C205.133 94 204.839 93.46 204.359 93.06C203.879 92.6467 203.293 92.44 202.599 92.44ZM213.876 101.16C212.983 101.16 212.11 101.053 211.256 100.84C210.403 100.613 209.723 100.333 209.216 100L210.256 97.76C210.736 98.0667 211.316 98.32 211.996 98.52C212.676 98.7067 213.343 98.8 213.996 98.8C215.316 98.8 215.976 98.4733 215.976 97.82C215.976 97.5133 215.796 97.2933 215.436 97.16C215.076 97.0267 214.523 96.9133 213.776 96.82C212.896 96.6867 212.17 96.5333 211.596 96.36C211.023 96.1867 210.523 95.88 210.096 95.44C209.683 95 209.476 94.3733 209.476 93.56C209.476 92.88 209.67 92.28 210.056 91.76C210.456 91.2267 211.03 90.8133 211.776 90.52C212.536 90.2267 213.43 90.08 214.456 90.08C215.216 90.08 215.97 90.1667 216.716 90.34C217.476 90.5 218.103 90.7267 218.596 91.02L217.556 93.24C216.61 92.7067 215.576 92.44 214.456 92.44C213.79 92.44 213.29 92.5333 212.956 92.72C212.623 92.9067 212.456 93.1467 212.456 93.44C212.456 93.7733 212.636 94.0067 212.996 94.14C213.356 94.2733 213.93 94.4 214.716 94.52C215.596 94.6667 216.316 94.8267 216.876 95C217.436 95.16 217.923 95.46 218.336 95.9C218.75 96.34 218.956 96.9533 218.956 97.74C218.956 98.4067 218.756 99 218.356 99.52C217.956 100.04 217.37 100.447 216.596 100.74C215.836 101.02 214.93 101.16 213.876 101.16ZM247.925 87L243.345 101H239.865L236.785 91.52L233.605 101H230.145L225.545 87H228.905L232.065 96.84L235.365 87H238.365L241.565 96.92L244.825 87H247.925ZM253.833 101.16C252.7 101.16 251.68 100.927 250.773 100.46C249.88 99.98 249.18 99.32 248.673 98.48C248.167 97.64 247.913 96.6867 247.913 95.62C247.913 94.5533 248.167 93.6 248.673 92.76C249.18 91.92 249.88 91.2667 250.773 90.8C251.68 90.32 252.7 90.08 253.833 90.08C254.967 90.08 255.98 90.32 256.873 90.8C257.767 91.2667 258.467 91.92 258.973 92.76C259.48 93.6 259.733 94.5533 259.733 95.62C259.733 96.6867 259.48 97.64 258.973 98.48C258.467 99.32 257.767 99.98 256.873 100.46C255.98 100.927 254.967 101.16 253.833 101.16ZM253.833 98.6C254.633 98.6 255.287 98.3333 255.793 97.8C256.313 97.2533 256.573 96.5267 256.573 95.62C256.573 94.7133 256.313 93.9933 255.793 93.46C255.287 92.9133 254.633 92.64 253.833 92.64C253.033 92.64 252.373 92.9133 251.853 93.46C251.333 93.9933 251.073 94.7133 251.073 95.62C251.073 96.5267 251.333 97.2533 251.853 97.8C252.373 98.3333 253.033 98.6 253.833 98.6ZM264.799 91.66C265.172 91.14 265.672 90.7467 266.299 90.48C266.939 90.2133 267.672 90.08 268.499 90.08V92.96C268.152 92.9333 267.919 92.92 267.799 92.92C266.906 92.92 266.206 93.1733 265.699 93.68C265.192 94.1733 264.939 94.92 264.939 95.92V101H261.819V90.24H264.799V91.66ZM270.354 86.16H273.474V101H270.354V86.16ZM287.33 86.16V101H284.35V99.76C283.576 100.693 282.456 101.16 280.99 101.16C279.976 101.16 279.056 100.933 278.23 100.48C277.416 100.027 276.776 99.38 276.31 98.54C275.843 97.7 275.61 96.7267 275.61 95.62C275.61 94.5133 275.843 93.54 276.31 92.7C276.776 91.86 277.416 91.2133 278.23 90.76C279.056 90.3067 279.976 90.08 280.99 90.08C282.363 90.08 283.436 90.5133 284.21 91.38V86.16H287.33ZM281.53 98.6C282.316 98.6 282.97 98.3333 283.49 97.8C284.01 97.2533 284.27 96.5267 284.27 95.62C284.27 94.7133 284.01 93.9933 283.49 93.46C282.97 92.9133 282.316 92.64 281.53 92.64C280.73 92.64 280.07 92.9133 279.55 93.46C279.03 93.9933 278.77 94.7133 278.77 95.62C278.77 96.5267 279.03 97.2533 279.55 97.8C280.07 98.3333 280.73 98.6 281.53 98.6ZM307.497 90.24L303.597 101H300.597L298.177 94.32L295.677 101H292.677L288.797 90.24H291.737L294.277 97.52L296.917 90.24H299.557L302.117 97.52L304.737 90.24H307.497ZM308.948 90.24H312.068V101H308.948V90.24ZM310.508 88.74C309.934 88.74 309.468 88.5733 309.108 88.24C308.748 87.9067 308.568 87.4933 308.568 87C308.568 86.5067 308.748 86.0933 309.108 85.76C309.468 85.4267 309.934 85.26 310.508 85.26C311.081 85.26 311.548 85.42 311.908 85.74C312.268 86.06 312.448 86.46 312.448 86.94C312.448 87.46 312.268 87.8933 311.908 88.24C311.548 88.5733 311.081 88.74 310.508 88.74ZM325.923 86.16V101H322.943V99.76C322.17 100.693 321.05 101.16 319.583 101.16C318.57 101.16 317.65 100.933 316.823 100.48C316.01 100.027 315.37 99.38 314.903 98.54C314.437 97.7 314.203 96.7267 314.203 95.62C314.203 94.5133 314.437 93.54 314.903 92.7C315.37 91.86 316.01 91.2133 316.823 90.76C317.65 90.3067 318.57 90.08 319.583 90.08C320.957 90.08 322.03 90.5133 322.803 91.38V86.16H325.923ZM320.123 98.6C320.91 98.6 321.563 98.3333 322.083 97.8C322.603 97.2533 322.863 96.5267 322.863 95.62C322.863 94.7133 322.603 93.9933 322.083 93.46C321.563 92.9133 320.91 92.64 320.123 92.64C319.323 92.64 318.663 92.9133 318.143 93.46C317.623 93.9933 317.363 94.7133 317.363 95.62C317.363 96.5267 317.623 97.2533 318.143 97.8C318.663 98.3333 319.323 98.6 320.123 98.6ZM339.351 95.66C339.351 95.7 339.331 95.98 339.291 96.5H331.151C331.298 97.1667 331.644 97.6933 332.191 98.08C332.738 98.4667 333.418 98.66 334.231 98.66C334.791 98.66 335.284 98.58 335.711 98.42C336.151 98.2467 336.558 97.98 336.931 97.62L338.591 99.42C337.578 100.58 336.098 101.16 334.151 101.16C332.938 101.16 331.864 100.927 330.931 100.46C329.998 99.98 329.278 99.32 328.771 98.48C328.264 97.64 328.011 96.6867 328.011 95.62C328.011 94.5667 328.258 93.62 328.751 92.78C329.258 91.9267 329.944 91.2667 330.811 90.8C331.691 90.32 332.671 90.08 333.751 90.08C334.804 90.08 335.758 90.3067 336.611 90.76C337.464 91.2133 338.131 91.8667 338.611 92.72C339.104 93.56 339.351 94.54 339.351 95.66ZM333.771 92.44C333.064 92.44 332.471 92.64 331.991 93.04C331.511 93.44 331.218 93.9867 331.111 94.68H336.411C336.304 94 336.011 93.46 335.531 93.06C335.051 92.6467 334.464 92.44 333.771 92.44Z" fill="black"/>
<line x1="415.5" y1="123" x2="415.5" y2="23" stroke="black"/>
<path d="M519.753 74.1964C519.753 80.7539 514.641 85.586 508.366 85.586C502.092 85.586 496.979 80.7539 496.979 74.1964C496.979 67.5928 502.092 62.8069 508.366 62.8069C514.641 62.8069 519.753 67.5928 519.753 74.1964ZM514.768 74.1964C514.768 70.0987 511.805 67.2949 508.366 67.2949C504.927 67.2949 501.964 70.0987 501.964 74.1964C501.964 78.2531 504.927 81.098 508.366 81.098C511.805 81.098 514.768 78.248 514.768 74.1964Z" fill="#EA4335"/>
<path d="M544.318 74.1964C544.318 80.7539 539.206 85.586 532.931 85.586C526.657 85.586 521.544 80.7539 521.544 74.1964C521.544 67.5979 526.657 62.8069 532.931 62.8069C539.206 62.8069 544.318 67.5928 544.318 74.1964ZM539.334 74.1964C539.334 70.0987 536.371 67.2949 532.931 67.2949C529.492 67.2949 526.529 70.0987 526.529 74.1964C526.529 78.2531 529.492 81.098 532.931 81.098C536.371 81.098 539.334 78.248 539.334 74.1964Z" fill="#FBBC05"/>
<path d="M567.86 63.495V83.9428C567.86 92.354 562.916 95.7893 557.072 95.7893C551.57 95.7893 548.259 92.0972 547.01 89.0778L551.35 87.2651C552.123 89.1189 554.017 91.3064 557.067 91.3064C560.808 91.3064 563.126 88.9905 563.126 84.6309V82.9928H562.952C561.836 84.3741 559.687 85.5808 556.975 85.5808C551.299 85.5808 546.099 80.6204 546.099 74.2375C546.099 67.8084 551.299 62.8069 556.975 62.8069C559.682 62.8069 561.831 64.0136 562.952 65.3539H563.126V63.5001H567.86V63.495ZM563.479 74.2375C563.479 70.227 560.813 67.2949 557.42 67.2949C553.981 67.2949 551.099 70.227 551.099 74.2375C551.099 78.2069 553.981 81.0979 557.42 81.0979C560.813 81.0979 563.479 78.2069 563.479 74.2375Z" fill="#4285F4"/>
<path d="M575.665 51.5098V84.8876H570.803V51.5098H575.665Z" fill="#34A853"/>
<path d="M594.611 77.945L598.48 80.5331C597.231 82.3869 594.222 85.5809 589.022 85.5809C582.574 85.5809 577.758 80.5793 577.758 74.1913C577.758 67.4182 582.615 62.8018 588.464 62.8018C594.355 62.8018 597.236 67.5055 598.178 70.0473L598.695 71.3414L583.52 77.6472C584.682 79.9323 586.489 81.098 589.022 81.098C591.56 81.098 593.321 79.845 594.611 77.945ZM582.702 73.8473L592.845 69.6211C592.287 68.1987 590.609 67.2076 588.633 67.2076C586.1 67.2076 582.574 69.4517 582.702 73.8473V73.8473Z" fill="#EA4335"/>
<path d="M478.576 71.2336V66.4015H494.804C494.963 67.2437 495.045 68.2399 495.045 69.3182C495.045 72.9436 494.057 77.4265 490.874 80.6205C487.777 83.8556 483.821 85.5809 478.581 85.5809C468.867 85.5809 460.699 77.6421 460.699 67.8958C460.699 58.1495 468.867 50.2107 478.581 50.2107C483.954 50.2107 487.782 52.3263 490.659 55.0839L487.26 58.4935C485.198 56.5525 482.404 55.0428 478.576 55.0428C471.482 55.0428 465.935 60.7786 465.935 67.8958C465.935 75.013 471.482 80.7489 478.576 80.7489C483.176 80.7489 485.797 78.8951 487.475 77.2108C488.837 75.8449 489.732 73.8936 490.085 71.2285L478.576 71.2336Z" fill="#4285F4"/>
<path fill-rule="evenodd" clip-rule="evenodd" d="M789.062 84.7679C781.016 90.6987 769.353 93.8629 759.312 93.8629C745.233 93.8629 732.558 88.6554 722.968 79.9945C722.215 79.3132 722.89 78.3851 723.794 78.9156C734.143 84.9367 746.938 88.559 760.156 88.559C769.07 88.559 778.876 86.7147 787.893 82.8875C789.255 82.3089 790.394 83.7795 789.062 84.7679" fill="#FF9900"/>
<path fill-rule="evenodd" clip-rule="evenodd" d="M792.407 80.9409C791.383 79.6269 785.608 80.32 783.017 80.6274C782.227 80.7239 782.107 80.0367 782.818 79.5425C787.417 76.306 794.963 77.2402 795.843 78.3251C796.722 79.416 795.614 86.98 791.292 90.5903C790.629 91.1448 789.996 90.8495 790.291 90.1141C791.262 87.6913 793.438 82.2608 792.407 80.9409" fill="#FF9900"/>
<path fill-rule="evenodd" clip-rule="evenodd" d="M783.198 56.6935V53.5473C783.198 53.0712 783.559 52.7517 783.993 52.7517H798.079C798.531 52.7517 798.892 53.0771 798.892 53.5473V56.2414C798.886 56.6935 798.507 57.2841 797.832 58.2183L790.533 68.6392C793.245 68.573 796.108 68.9768 798.567 70.3631C799.121 70.6764 799.272 71.1346 799.314 71.5865V74.9437C799.314 75.4017 798.808 75.9381 798.277 75.6609C793.944 73.3887 788.188 73.1416 783.396 75.685C782.908 75.9503 782.396 75.4198 782.396 74.9618V71.7734C782.396 71.2611 782.402 70.3872 782.914 69.6097L791.37 57.4831H784.011C783.559 57.4831 783.198 57.1637 783.198 56.6935V56.6935ZM731.816 76.3238H727.531C727.121 76.2938 726.796 75.9864 726.765 75.5946V53.6016C726.765 53.1616 727.133 52.812 727.591 52.812H731.587C732.003 52.83 732.335 53.1495 732.365 53.5472V56.4223H732.443C733.486 53.6438 735.444 52.3481 738.084 52.3481C740.766 52.3481 742.442 53.6438 743.648 56.4223C744.684 53.6438 747.041 52.3481 749.566 52.3481C751.362 52.3481 753.327 53.0894 754.526 54.7529C755.883 56.6032 755.605 59.2913 755.605 61.6479L755.599 75.5284C755.599 75.9684 755.232 76.324 754.774 76.324H750.494C750.066 76.2939 749.723 75.9504 749.723 75.5284V63.8719C749.723 62.9436 749.807 60.6291 749.602 59.7493C749.283 58.2726 748.325 57.8567 747.083 57.8567C746.046 57.8567 744.961 58.5498 744.521 59.6589C744.081 60.768 744.124 62.6242 744.124 63.8719V75.5282C744.124 75.9683 743.756 76.3238 743.298 76.3238H739.019C738.585 76.2938 738.247 75.9503 738.247 75.5282L738.241 63.8719C738.241 61.4187 738.645 57.8086 735.601 57.8086C732.521 57.8086 732.642 61.3283 732.642 63.8719V75.5282C732.642 75.9683 732.274 76.3238 731.816 76.3238V76.3238ZM811.019 52.348C817.377 52.348 820.819 57.8085 820.819 64.7518C820.819 71.46 817.016 76.782 811.019 76.782C804.775 76.782 801.375 71.3214 801.375 64.5167C801.375 57.6699 804.817 52.348 811.019 52.348V52.348ZM811.055 56.8381C807.897 56.8381 807.698 61.1415 807.698 63.8235C807.698 66.5118 807.656 72.2495 811.019 72.2495C814.34 72.2495 814.496 67.6207 814.496 64.8C814.496 62.9436 814.418 60.7256 813.858 58.9657C813.375 57.4348 812.417 56.8381 811.055 56.8381H811.055ZM829.064 76.3238H824.797C824.369 76.2938 824.025 75.9503 824.025 75.5282L824.019 53.5292C824.055 53.1254 824.411 52.812 824.845 52.812H828.817C829.191 52.83 829.498 53.0833 829.582 53.4267V56.79H829.661C830.86 53.7824 832.542 52.348 835.501 52.348C837.424 52.348 839.298 53.041 840.504 54.9396C841.625 56.6994 841.625 59.6589 841.625 61.7865V75.6307C841.576 76.0165 841.221 76.3238 840.799 76.3238H836.502C836.11 76.2938 835.784 76.0044 835.742 75.6307V63.6849C835.742 61.2801 836.019 57.7602 833.06 57.7602C832.018 57.7602 831.059 58.4594 830.583 59.5201C829.98 60.8643 829.902 62.2023 829.902 63.6851V75.5282C829.896 75.9683 829.522 76.3238 829.064 76.3238V76.3238ZM771.969 65.8186C771.969 67.4881 772.011 68.8804 771.167 70.3629C770.486 71.5685 769.401 72.3097 768.202 72.3097C766.557 72.3097 765.592 71.0562 765.592 69.2058C765.592 65.5533 768.865 64.8904 771.969 64.8904V65.8186V65.8186ZM776.29 76.2636C776.007 76.5167 775.597 76.5349 775.278 76.3661C773.856 75.1847 773.596 74.6363 772.819 73.5092C770.468 75.908 768.799 76.6253 765.755 76.6253C762.145 76.6253 759.342 74.4012 759.342 69.9473C759.342 66.4695 761.223 64.1009 763.911 62.9436C766.237 61.919 769.486 61.7382 771.969 61.4549V60.9005C771.969 59.8818 772.047 58.6764 771.445 57.7964C770.926 57.0069 769.926 56.6814 769.04 56.6814C767.406 56.6814 765.954 57.5191 765.598 59.255C765.526 59.6407 765.243 60.0204 764.851 60.0385L760.698 59.5926C760.349 59.5142 759.957 59.2309 760.059 58.6945C761.012 53.6559 765.568 52.137 769.643 52.137C771.728 52.137 774.452 52.6915 776.098 54.2707C778.183 56.2174 777.984 58.815 777.984 61.6418V68.3198C777.984 70.3269 778.816 71.2067 779.599 72.2917C779.871 72.6775 779.931 73.1416 779.581 73.4308C778.707 74.1601 777.152 75.5162 776.297 76.2757L776.291 76.2636H776.29ZM715.79 65.8186C715.79 67.4881 715.832 68.8804 714.988 70.3629C714.307 71.5685 713.228 72.3097 712.023 72.3097C710.378 72.3097 709.419 71.0562 709.419 69.2058C709.419 65.5533 712.692 64.8904 715.79 64.8904V65.8186ZM720.111 76.2636C719.828 76.5167 719.418 76.5349 719.099 76.3661C717.677 75.1847 717.423 74.6363 716.64 73.5092C714.289 75.908 712.626 76.6253 709.576 76.6253C705.972 76.6253 703.163 74.4012 703.163 69.9473C703.163 66.4695 705.05 64.1009 707.732 62.9436C710.058 61.919 713.307 61.7382 715.79 61.4549V60.9005C715.79 59.8818 715.868 58.6764 715.272 57.7964C714.747 57.0069 713.747 56.6814 712.867 56.6814C711.234 56.6814 709.775 57.5191 709.419 59.255C709.347 59.6407 709.064 60.0204 708.678 60.0385L704.519 59.5926C704.17 59.5142 703.784 59.2309 703.88 58.6945C704.839 53.6559 709.389 52.137 713.464 52.137C715.549 52.137 718.273 52.6915 719.919 54.2707C722.004 56.2174 721.805 58.815 721.805 61.6418V68.3198C721.805 70.3269 722.637 71.2067 723.42 72.2917C723.698 72.6775 723.758 73.1416 723.408 73.4308C722.534 74.1601 720.979 75.5162 720.124 76.2757L720.112 76.2636" fill="black"/>
<path d="M990.457 83.0695L992.187 79.0529C994.056 80.4476 996.538 81.1728 998.993 81.1728C1000.81 81.1728 1001.95 80.4755 1001.95 79.4155C1001.92 76.4589 991.099 78.774 991.015 71.3544C990.987 67.5888 994.335 64.6879 999.076 64.6879C1001.89 64.6879 1004.71 65.3853 1006.72 66.9752L1005.1 71.0755C1003.26 69.904 1000.97 69.0672 998.797 69.0672C997.319 69.0672 996.343 69.7645 996.343 70.6571C996.371 73.558 1007.28 71.9681 1007.39 79.0529C1007.39 82.9022 1004.13 85.6078 999.439 85.6078C996.008 85.6078 992.856 84.7989 990.457 83.0695ZM1056.82 77.6025C1055.95 79.1087 1054.33 80.1407 1052.46 80.1407C1049.7 80.1407 1047.47 77.9093 1047.47 75.1479C1047.47 72.3865 1049.7 70.155 1052.46 70.155C1054.33 70.155 1055.95 71.187 1056.82 72.6933L1061.58 70.0434C1059.8 66.8636 1056.37 64.6879 1052.46 64.6879C1046.69 64.6879 1042 69.374 1042 75.1479C1042 80.9218 1046.69 85.6078 1052.46 85.6078C1056.4 85.6078 1059.8 83.46 1061.58 80.2523L1056.82 77.6025ZM1009.79 56.0132H1015.76V85.2173H1009.79V56.0132ZM1063.93 56.0132V85.2173H1069.9V76.4589L1076.98 85.2173H1084.62L1075.62 74.8132L1083.96 65.1063H1076.65L1069.9 73.1675V56.0132H1063.93ZM1033.5 77.6583C1032.63 79.0808 1030.85 80.1407 1028.84 80.1407C1026.08 80.1407 1023.85 77.9093 1023.85 75.1479C1023.85 72.3865 1026.08 70.155 1028.84 70.155C1030.85 70.155 1032.63 71.2707 1033.5 72.7212V77.6583ZM1033.5 65.1063V67.4773C1032.52 65.8316 1030.09 64.6879 1027.56 64.6879C1022.31 64.6879 1018.18 69.3182 1018.18 75.12C1018.18 80.9218 1022.31 85.6078 1027.56 85.6078C1030.09 85.6078 1032.52 84.4642 1033.5 82.8185V85.1894H1039.47V65.1063H1033.5Z" fill="black"/>
<path d="M953.555 77.6304C953.555 79.6666 951.909 81.3123 949.873 81.3123C947.837 81.3123 946.191 79.6666 946.191 77.6304C946.191 75.5942 947.837 73.9485 949.873 73.9485H953.555V77.6304ZM955.396 77.6304C955.396 75.5942 957.041 73.9485 959.078 73.9485C961.114 73.9485 962.76 75.5942 962.76 77.6304V86.8351C962.76 88.8713 961.114 90.517 959.078 90.517C957.041 90.517 955.396 88.8713 955.396 86.8351V77.6304Z" fill="#E01E5A"/>
<path d="M959.078 62.8469C957.041 62.8469 955.396 61.2012 955.396 59.165C955.396 57.1288 957.041 55.4832 959.078 55.4832C961.114 55.4832 962.76 57.1288 962.76 59.165V62.8469H959.078ZM959.078 64.7158C961.114 64.7158 962.76 66.3615 962.76 68.3977C962.76 70.4339 961.114 72.0796 959.078 72.0796H949.845C947.809 72.0796 946.163 70.4339 946.163 68.3977C946.163 66.3615 947.809 64.7158 949.845 64.7158H959.078Z" fill="#36C5F0"/>
<path d="M973.833 68.3977C973.833 66.3615 975.479 64.7158 977.515 64.7158C979.551 64.7158 981.197 66.3615 981.197 68.3977C981.197 70.4339 979.551 72.0796 977.515 72.0796H973.833V68.3977ZM971.992 68.3977C971.992 70.4339 970.346 72.0796 968.31 72.0796C966.274 72.0796 964.628 70.4339 964.628 68.3977V59.165C964.628 57.1288 966.274 55.4832 968.31 55.4832C970.346 55.4832 971.992 57.1288 971.992 59.165V68.3977Z" fill="#2EB67D"/>
<path d="M968.31 83.1532C970.346 83.1532 971.992 84.7989 971.992 86.8351C971.992 88.8713 970.346 90.517 968.31 90.517C966.274 90.517 964.628 88.8713 964.628 86.8351V83.1532H968.31ZM968.31 81.3123C966.274 81.3123 964.628 79.6666 964.628 77.6304C964.628 75.5942 966.274 73.9485 968.31 73.9485H977.543C979.579 73.9485 981.225 75.5942 981.225 77.6304C981.225 79.6666 979.579 81.3123 977.543 81.3123H968.31Z" fill="#ECB22E"/>
<path fill-rule="evenodd" clip-rule="evenodd" d="M1316.78 87.1141H1320.75L1327.62 69.6941H1323.69L1320.85 78.3698L1317.86 69.6938H1313.47L1318.69 82.2769L1316.78 87.1141ZM1297.06 73.8293V82.7588H1293.05V69.6941H1295.87L1296.7 70.8353C1297.79 69.9226 1298.96 69.3892 1300.31 69.3892C1302.11 69.3892 1303.48 69.9224 1304.31 71.2421C1305.53 70.1252 1306.83 69.3892 1308.47 69.3892C1311.57 69.3892 1313.37 70.988 1313.37 75.326V82.7588H1309.36V75.7828C1309.36 73.7787 1308.55 73.1949 1307.26 73.1949C1306.5 73.1949 1305.86 73.3975 1305.15 73.8543C1305.2 74.3112 1305.23 74.7928 1305.23 75.326V82.7588H1301.22V75.7828C1301.22 73.7787 1300.41 73.1949 1299.09 73.1949C1298.35 73.1949 1297.74 73.3727 1297.06 73.8293V73.8293ZM1283.08 74.9455H1288.23C1287.95 73.2462 1287.04 72.4339 1285.67 72.4339C1284.5 72.4339 1283.38 73.1191 1283.08 74.9457L1283.08 74.9455ZM1285.95 83.0129C1282.09 83.0129 1278.99 81.1101 1278.99 76.0868C1278.99 71.3933 1281.99 69.3644 1285.44 69.3644C1289.6 69.3644 1291.45 72.2813 1291.45 76.8733H1283.05C1283.33 79.131 1284.73 79.7911 1286.58 79.7911C1288.37 79.7911 1289.77 79.349 1290.86 78.6195L1290.31 81.7991C1289.28 82.5984 1288.04 83.0129 1285.95 83.0129V83.0129ZM1271.02 79.6389C1271.93 79.6389 1272.62 79.4862 1273.33 78.9538V73.2715C1272.69 72.8903 1272.06 72.7133 1271.15 72.7133C1269.19 72.7133 1268.08 74.0323 1268.08 76.239C1268.08 78.396 1269.22 79.6394 1271.02 79.6394L1271.02 79.6389ZM1274.12 81.7953C1273.08 82.5818 1271.88 83.0634 1270.18 83.0634C1266.61 83.0634 1264.02 80.8565 1264.02 76.3153C1264.02 71.7996 1266.99 69.3644 1270.79 69.3644C1271.68 69.3644 1272.54 69.4913 1273.33 69.7955V64.25H1277.34V82.7588H1274.8L1274.12 81.7953ZM1247.03 75.0214V65.3388H1251.2V74.9453C1251.2 78.3955 1252.74 79.1057 1254.87 79.1057C1257.18 79.1057 1258.37 78.0907 1258.37 74.9453V65.3388H1262.56V75.0214C1262.56 80.7296 1260.07 83.1143 1254.67 83.1143C1249.65 83.1143 1247.03 81.0593 1247.03 75.0214H1247.03Z" fill="#645A53"/>
<path fill-rule="evenodd" clip-rule="evenodd" d="M1236.43 75.7472C1236.27 75.6134 1236.07 75.5222 1235.87 75.4818C1234.65 76.698 1233.16 77.9791 1231.84 78.8401C1231.23 79.2456 1230.46 79.4482 1229.95 79.4482C1228.78 79.4482 1228.27 78.3332 1228.12 76.5607C1227.92 74.1801 1227.78 71.3285 1227.78 66.9212C1227.78 62.4009 1226.75 59.328 1224.02 59.0867C1223.9 59.0757 1223.78 59.07 1223.67 59.0694C1221.99 59.0694 1221.17 59.9303 1220.11 62.1091C1219.19 63.9829 1217.77 66.7184 1215.13 71.8853C1212.84 76.3432 1210.3 80.2944 1208.11 83.03C1207.5 83.7883 1207.02 84.3092 1206.57 84.6054C1206.27 84.8043 1205.98 84.904 1205.67 84.904C1204.81 84.904 1204.18 84.1758 1203.97 82.4801C1203.92 82.0773 1203.89 81.6199 1203.89 81.1048C1203.89 77.6097 1205.21 71.9359 1207.5 63.5776C1209.18 57.4987 1208.47 53.3457 1204.81 53.3457H1204.76L1204.76 53.3464C1203.93 53.3561 1203.25 53.6561 1202.58 54.1773C1201.93 54.6902 1201.28 55.799 1200.67 57.2892C1199.98 58.968 1195.81 67.34 1189.17 71.6529C1189.09 73.2929 1190.02 74.932 1191.9 75.1097C1193.61 75.2718 1194.83 74.5503 1196.39 73.4986C1196.18 74.4346 1195.98 75.3712 1195.77 76.3085C1195.65 76.8559 1195.58 77.208 1195.55 77.3056C1195.35 78.245 1195.19 79.1945 1195.08 80.1502C1194.14 88.5227 1198.02 92.6543 1202.57 92.6543C1203.33 92.6543 1204.08 92.5637 1204.83 92.3739C1209.84 91.1043 1214.66 85.3607 1220.36 72.1387C1220.28 73.5769 1220.27 74.9202 1220.33 76.1669C1220.7 83.7447 1223.7 86.0181 1227.94 86.0181C1231.14 86.0181 1234.14 84.3468 1235.66 82.2697C1236.78 80.8006 1237.24 79.1794 1237.24 77.9132C1237.24 76.9304 1236.93 76.1455 1236.43 75.7472" fill="#EA5252"/>
</svg>
