<svg width="789" height="100" viewBox="0 0 789 100" fill="none" xmlns="http://www.w3.org/2000/svg">
<path d="M66.461 50.9972C66.461 56.4617 62.2005 60.4884 56.9718 60.4884C51.7432 60.4884 47.4827 56.4617 47.4827 50.9972C47.4827 45.4941 51.7432 41.5059 56.9718 41.5059C62.2005 41.5059 66.461 45.4941 66.461 50.9972ZM62.3071 50.9972C62.3071 47.5823 59.8378 45.2459 56.9718 45.2459C54.1059 45.2459 51.6366 47.5823 51.6366 50.9972C51.6366 54.3777 54.1059 56.7484 56.9718 56.7484C59.8378 56.7484 62.3071 54.3735 62.3071 50.9972Z" fill="#EA4335"/>
<path d="M86.932 50.9972C86.932 56.4617 82.6714 60.4884 77.4428 60.4884C72.2141 60.4884 67.9536 56.4617 67.9536 50.9972C67.9536 45.4984 72.2141 41.5059 77.4428 41.5059C82.6714 41.5059 86.932 45.4941 86.932 50.9972ZM82.7781 50.9972C82.7781 47.5823 80.3087 45.2459 77.4428 45.2459C74.5768 45.2459 72.1075 47.5823 72.1075 50.9972C72.1075 54.3777 74.5768 56.7484 77.4428 56.7484C80.3087 56.7484 82.7781 54.3735 82.7781 50.9972Z" fill="#FBBC05"/>
<path d="M106.55 42.0793V59.1191C106.55 66.1284 102.43 68.9912 97.5599 68.9912C92.9752 68.9912 90.2159 65.9145 89.1753 63.3983L92.7918 61.8877C93.4358 63.4325 95.0138 65.2555 97.5556 65.2555C100.673 65.2555 102.605 63.3256 102.605 59.6925V58.3274H102.46C101.53 59.4785 99.7392 60.4842 97.4788 60.4842C92.7492 60.4842 88.4161 56.3504 88.4161 51.0314C88.4161 45.6738 92.7492 41.5059 97.4788 41.5059C99.7349 41.5059 101.526 42.5115 102.46 43.6283H102.605V42.0836H106.55V42.0793ZM102.899 51.0314C102.899 47.6893 100.677 45.2459 97.8499 45.2459C94.9839 45.2459 92.5828 47.6893 92.5828 51.0314C92.5828 54.3392 94.9839 56.7484 97.8499 56.7484C100.677 56.7484 102.899 54.3392 102.899 51.0314Z" fill="#4285F4"/>
<path d="M113.054 32.0916V59.9064H109.002V32.0916H113.054Z" fill="#34A853"/>
<path d="M128.842 54.1209L132.066 56.2776C131.026 57.8224 128.518 60.484 124.185 60.484C118.811 60.484 114.798 56.3161 114.798 50.9928C114.798 45.3485 118.846 41.5015 123.72 41.5015C128.629 41.5015 131.03 45.4212 131.815 47.5394L132.246 48.6178L119.6 53.8727C120.569 55.7769 122.074 56.7483 124.185 56.7483C126.3 56.7483 127.767 55.7042 128.842 54.1209ZM118.918 50.706L127.371 47.1843C126.906 45.9989 125.507 45.173 123.861 45.173C121.75 45.173 118.811 47.043 118.918 50.706V50.706Z" fill="#EA4335"/>
<path d="M32.1463 48.5279V44.5011H45.67C45.8022 45.2029 45.8705 46.0331 45.8705 46.9317C45.8705 49.9529 45.0474 53.6886 42.3947 56.3503C39.8145 59.0462 36.5178 60.484 32.1506 60.484C24.056 60.484 17.2494 53.8683 17.2494 45.7464C17.2494 37.6244 24.056 31.0088 32.1506 31.0088C36.6286 31.0088 39.8187 32.7718 42.2155 35.0698L39.3837 37.9112C37.665 36.2936 35.3364 35.0355 32.1463 35.0355C26.2353 35.0355 21.6123 39.8154 21.6123 45.7464C21.6123 51.6774 26.2353 56.4573 32.1463 56.4573C35.9804 56.4573 38.164 54.9125 39.5628 53.5089C40.6973 52.3706 41.4436 50.7445 41.7379 48.5236L32.1463 48.5279Z" fill="#4285F4"/>
<path fill-rule="evenodd" clip-rule="evenodd" d="M301.385 59.8067C294.68 64.7489 284.961 67.3858 276.593 67.3858C264.86 67.3858 254.298 63.0462 246.307 55.8288C245.679 55.2611 246.242 54.4877 246.995 54.9297C255.619 59.9473 266.282 62.9659 277.297 62.9659C284.725 62.9659 292.897 61.429 300.411 58.2396C301.546 57.7574 302.495 58.9829 301.385 59.8067" fill="#FF9900"/>
<path fill-rule="evenodd" clip-rule="evenodd" d="M304.173 56.6172C303.319 55.5222 298.507 56.0998 296.347 56.356C295.689 56.4364 295.589 55.8638 296.182 55.452C300.014 52.7548 306.302 53.5333 307.035 54.4374C307.769 55.3465 306.845 61.6498 303.243 64.6584C302.691 65.1205 302.163 64.8744 302.41 64.2616C303.218 62.2426 305.031 57.7172 304.173 56.6172" fill="#FF9900"/>
<path fill-rule="evenodd" clip-rule="evenodd" d="M296.498 36.4113V33.7896C296.498 33.3928 296.799 33.1266 297.161 33.1266H308.899C309.275 33.1266 309.577 33.3977 309.577 33.7896V36.0346C309.572 36.4113 309.255 36.9036 308.693 37.6821L302.611 46.3661C304.871 46.311 307.256 46.6474 309.306 47.8027C309.768 48.0638 309.893 48.4456 309.928 48.8222V51.6198C309.928 52.0015 309.506 52.4485 309.065 52.2175C305.453 50.3241 300.657 50.1181 296.664 52.2376C296.257 52.4587 295.83 52.0166 295.83 51.6349V48.978C295.83 48.5511 295.835 47.8228 296.262 47.1749L303.309 37.0694H297.176C296.799 37.0694 296.498 36.8032 296.498 36.4113V36.4113ZM253.68 52.77H250.109C249.767 52.7449 249.496 52.4888 249.471 52.1623V33.8348C249.471 33.4681 249.778 33.1768 250.159 33.1768H253.489C253.836 33.1918 254.112 33.4581 254.137 33.7894V36.1854H254.203C255.071 33.87 256.704 32.7902 258.904 32.7902C261.139 32.7902 262.535 33.87 263.54 36.1854C264.403 33.87 266.367 32.7902 268.472 32.7902C269.968 32.7902 271.606 33.408 272.605 34.7942C273.735 36.3361 273.504 38.5762 273.504 40.54L273.499 52.1071C273.499 52.4738 273.193 52.7701 272.811 52.7701H269.245C268.889 52.7451 268.602 52.4588 268.602 52.1071V42.3933C268.602 41.6198 268.673 39.691 268.502 38.9579C268.236 37.7273 267.437 37.3807 266.402 37.3807C265.538 37.3807 264.634 37.9583 264.268 38.8825C263.901 39.8068 263.936 41.3536 263.936 42.3933V52.107C263.936 52.4737 263.63 52.77 263.248 52.77H259.682C259.321 52.7449 259.039 52.4587 259.039 52.107L259.034 42.3933C259.034 40.3491 259.371 37.3406 256.834 37.3406C254.268 37.3406 254.368 40.2737 254.368 42.3933V52.107C254.368 52.4737 254.062 52.77 253.68 52.77V52.77ZM319.682 32.7901C324.981 32.7901 327.849 37.3405 327.849 43.1266C327.849 48.7168 324.68 53.1518 319.682 53.1518C314.479 53.1518 311.646 48.6013 311.646 42.9307C311.646 37.225 314.514 32.7901 319.682 32.7901V32.7901ZM319.712 36.5319C317.081 36.5319 316.915 40.1181 316.915 42.3531C316.915 44.5933 316.88 49.3747 319.682 49.3747C322.45 49.3747 322.58 45.5174 322.58 43.1668C322.58 41.6198 322.515 39.7714 322.048 38.3049C321.646 37.0291 320.848 36.5319 319.713 36.5319H319.712ZM334.72 52.77H331.164C330.808 52.7449 330.521 52.4587 330.521 52.107L330.516 33.7744C330.546 33.438 330.843 33.1768 331.204 33.1768H334.514C334.826 33.1918 335.082 33.4029 335.152 33.6891V36.4918H335.217C336.217 33.9855 337.618 32.7901 340.084 32.7901C341.686 32.7901 343.249 33.3676 344.253 34.9498C345.187 36.4163 345.187 38.8825 345.187 40.6555V52.1924C345.147 52.5138 344.851 52.77 344.499 52.77H340.918C340.591 52.7449 340.32 52.5038 340.285 52.1924V42.2376C340.285 40.2336 340.516 37.3003 338.05 37.3003C337.181 37.3003 336.383 37.8829 335.986 38.7669C335.483 39.8871 335.418 41.002 335.418 42.2377V52.107C335.413 52.4737 335.102 52.77 334.72 52.77V52.77ZM287.141 44.0156C287.141 45.4068 287.176 46.5671 286.473 47.8026C285.905 48.8072 285.001 49.4249 284.002 49.4249C282.631 49.4249 281.827 48.3803 281.827 46.8383C281.827 43.7946 284.554 43.2421 287.141 43.2421V44.0156V44.0156ZM290.742 52.7198C290.506 52.9307 290.164 52.9458 289.898 52.8052C288.713 51.8207 288.497 51.3637 287.849 50.4244C285.89 52.4235 284.499 53.0212 281.962 53.0212C278.954 53.0212 276.618 51.1678 276.618 47.4562C276.618 44.5581 278.185 42.5842 280.426 41.6198C282.364 40.7659 285.071 40.6153 287.141 40.3792V39.9172C287.141 39.0683 287.206 38.0638 286.704 37.3305C286.272 36.6726 285.438 36.4013 284.7 36.4013C283.339 36.4013 282.128 37.0994 281.832 38.5459C281.772 38.8674 281.536 39.1838 281.209 39.1989L277.748 38.8273C277.457 38.7619 277.131 38.5259 277.216 38.0789C278.01 33.88 281.807 32.6143 285.202 32.6143C286.94 32.6143 289.21 33.0764 290.581 34.3923C292.319 36.0146 292.153 38.1793 292.153 40.5349V46.0999C292.153 47.7726 292.847 48.5057 293.5 49.4099C293.726 49.7313 293.776 50.1181 293.485 50.3591C292.756 50.9669 291.46 52.0969 290.747 52.7298L290.742 52.7198H290.742ZM240.325 44.0156C240.325 45.4068 240.36 46.5671 239.657 47.8026C239.089 48.8072 238.19 49.4249 237.186 49.4249C235.815 49.4249 235.016 48.3803 235.016 46.8383C235.016 43.7946 237.743 43.2421 240.325 43.2421V44.0156ZM243.926 52.7198C243.69 52.9307 243.349 52.9458 243.082 52.8052C241.897 51.8207 241.686 51.3637 241.033 50.4244C239.074 52.4235 237.688 53.0212 235.147 53.0212C232.143 53.0212 229.803 51.1678 229.803 47.4562C229.803 44.5581 231.375 42.5842 233.61 41.6198C235.549 40.7659 238.256 40.6153 240.325 40.3792V39.9172C240.325 39.0683 240.39 38.0638 239.893 37.3305C239.456 36.6726 238.622 36.4013 237.889 36.4013C236.528 36.4013 235.312 37.0994 235.016 38.5459C234.956 38.8674 234.72 39.1838 234.398 39.1989L230.933 38.8273C230.641 38.7619 230.32 38.5259 230.4 38.0789C231.199 33.88 234.991 32.6143 238.386 32.6143C240.124 32.6143 242.394 33.0764 243.766 34.3923C245.503 36.0146 245.338 38.1793 245.338 40.5349V46.0999C245.338 47.7726 246.031 48.5057 246.684 49.4099C246.915 49.7313 246.965 50.1181 246.674 50.3591C245.945 50.9669 244.649 52.0969 243.936 52.7298L243.926 52.7198" fill="black"/>
<path d="M479.715 58.3912L481.156 55.044C482.713 56.2062 484.782 56.8106 486.827 56.8106C488.338 56.8106 489.291 56.2295 489.291 55.3462C489.268 52.8823 480.249 54.8116 480.179 48.6286C480.156 45.4906 482.945 43.0732 486.897 43.0732C489.245 43.0732 491.592 43.6543 493.266 44.9792L491.918 48.3962C490.384 47.4199 488.478 46.7226 486.665 46.7226C485.433 46.7226 484.619 47.3037 484.619 48.0475C484.642 50.4649 493.731 49.14 493.824 55.044C493.824 58.2517 491.104 60.5064 487.199 60.5064C484.34 60.5064 481.714 59.8323 479.715 58.3912ZM535.013 53.8353C534.292 55.0905 532.944 55.9505 531.387 55.9505C529.085 55.9505 527.226 54.091 527.226 51.7898C527.226 49.4886 529.085 47.6291 531.387 47.6291C532.944 47.6291 534.292 48.4891 535.013 49.7443L538.987 47.5361C537.5 44.8863 534.641 43.0732 531.387 43.0732C526.575 43.0732 522.67 46.9782 522.67 51.7898C522.67 56.6014 526.575 60.5064 531.387 60.5064C534.664 60.5064 537.5 58.7166 538.987 56.0435L535.013 53.8353ZM495.823 35.8442H500.797V60.181H495.823V35.8442ZM540.94 35.8442V60.181H545.914V52.8823L551.818 60.181H558.187L550.679 51.5109L557.629 43.4219H551.539L545.914 50.1395V35.8442H540.94ZM515.58 53.8818C514.86 55.0673 513.372 55.9505 511.699 55.9505C509.397 55.9505 507.538 54.091 507.538 51.7898C507.538 49.4886 509.397 47.6291 511.699 47.6291C513.372 47.6291 514.86 48.5589 515.58 49.7676V53.8818ZM515.58 43.4219V45.3976C514.767 44.0262 512.745 43.0732 510.629 43.0732C506.26 43.0732 502.819 46.9318 502.819 51.7666C502.819 56.6014 506.26 60.5064 510.629 60.5064C512.745 60.5064 514.767 59.5534 515.58 58.182V60.1578H520.555V43.4219H515.58Z" fill="black"/>
<path d="M448.962 53.8585C448.962 55.5554 447.591 56.9268 445.894 56.9268C444.197 56.9268 442.826 55.5554 442.826 53.8585C442.826 52.1617 444.197 50.7903 445.894 50.7903H448.962V53.8585ZM450.496 53.8585C450.496 52.1617 451.868 50.7903 453.565 50.7903C455.262 50.7903 456.633 52.1617 456.633 53.8585V61.5291C456.633 63.2259 455.262 64.5974 453.565 64.5974C451.868 64.5974 450.496 63.2259 450.496 61.5291V53.8585Z" fill="#E01E5A"/>
<path d="M453.565 41.5391C451.868 41.5391 450.496 40.1677 450.496 38.4708C450.496 36.774 451.868 35.4026 453.565 35.4026C455.262 35.4026 456.633 36.774 456.633 38.4708V41.5391H453.565ZM453.565 43.0964C455.262 43.0964 456.633 44.4679 456.633 46.1647C456.633 47.8615 455.262 49.2329 453.565 49.2329H445.871C444.174 49.2329 442.803 47.8615 442.803 46.1647C442.803 44.4679 444.174 43.0964 445.871 43.0964H453.565Z" fill="#36C5F0"/>
<path d="M465.861 46.1647C465.861 44.4679 467.232 43.0964 468.929 43.0964C470.626 43.0964 471.997 44.4679 471.997 46.1647C471.997 47.8615 470.626 49.2329 468.929 49.2329H465.861V46.1647ZM464.327 46.1647C464.327 47.8615 462.955 49.2329 461.259 49.2329C459.562 49.2329 458.19 47.8615 458.19 46.1647V38.4708C458.19 36.774 459.562 35.4026 461.259 35.4026C462.955 35.4026 464.327 36.774 464.327 38.4708V46.1647Z" fill="#2EB67D"/>
<path d="M461.259 58.4609C462.955 58.4609 464.327 59.8323 464.327 61.5291C464.327 63.2259 462.955 64.5974 461.259 64.5974C459.562 64.5974 458.19 63.2259 458.19 61.5291V58.4609H461.259ZM461.259 56.9268C459.562 56.9268 458.19 55.5554 458.19 53.8585C458.19 52.1617 459.562 50.7903 461.259 50.7903H468.952C470.649 50.7903 472.021 52.1617 472.021 53.8585C472.021 55.5554 470.649 56.9268 468.952 56.9268H461.259Z" fill="#ECB22E"/>
<path fill-rule="evenodd" clip-rule="evenodd" d="M762.148 61.7617H765.459L771.187 47.245H767.91L765.542 54.4747L763.048 47.2448H759.39L763.745 57.7307L762.148 61.7617ZM745.715 50.691V58.1323H742.375V47.245H744.722L745.42 48.196C746.328 47.4354 747.301 46.9909 748.421 46.9909C749.922 46.9909 751.064 47.4352 751.762 48.535C752.776 47.6042 753.855 46.9909 755.229 46.9909C757.808 46.9909 759.309 48.3233 759.309 51.9383V58.1323H755.969V52.319C755.969 50.6488 755.292 50.1624 754.214 50.1624C753.58 50.1624 753.052 50.3311 752.459 50.7119C752.502 51.0926 752.523 51.4939 752.523 51.9383V58.1323H749.183V52.319C749.183 50.6488 748.506 50.1624 747.407 50.1624C746.794 50.1624 746.286 50.3105 745.715 50.691V50.691ZM734.065 51.6212H738.357C738.125 50.2051 737.363 49.5282 736.222 49.5282C735.249 49.5282 734.32 50.0992 734.066 51.6214L734.065 51.6212ZM736.455 58.344C733.241 58.344 730.662 56.7584 730.662 52.5722C730.662 48.661 733.157 46.9702 736.032 46.9702C739.499 46.9702 741.042 49.401 741.042 53.2277H734.044C734.277 55.1091 735.44 55.6592 736.983 55.6592C738.476 55.6592 739.644 55.2907 740.547 54.6828L740.094 57.3325C739.231 57.9986 738.197 58.344 736.455 58.344V58.344ZM724.017 55.5324C724.778 55.5324 725.349 55.4051 725.941 54.9614V50.2262C725.412 49.9085 724.884 49.761 724.123 49.761C722.495 49.761 721.565 50.8602 721.565 52.6991C721.565 54.4966 722.516 55.5328 724.017 55.5328L724.017 55.5324ZM726.596 57.3293C725.729 57.9848 724.736 58.3861 723.319 58.3861C720.338 58.3861 718.182 56.547 718.182 52.7627C718.182 48.9996 720.656 46.9702 723.827 46.9702C724.567 46.9702 725.286 47.076 725.941 47.3295V42.7083H729.281V58.1323H727.167L726.596 57.3293ZM704.029 51.6844V43.6156H707.496V51.621C707.496 54.4962 708.785 55.088 710.561 55.088C712.485 55.088 713.479 54.2421 713.479 51.621V43.6156H716.967V51.6844C716.967 56.4413 714.896 58.4285 710.393 58.4285C706.206 58.4285 704.029 56.716 704.029 51.6844H704.029Z" fill="#645A53"/>
<path fill-rule="evenodd" clip-rule="evenodd" d="M695.193 52.2892C695.057 52.1777 694.895 52.1017 694.722 52.0681C693.705 53.0816 692.464 54.1492 691.363 54.8667C690.854 55.2046 690.215 55.3734 689.791 55.3734C688.817 55.3734 688.393 54.4442 688.266 52.9672C688.097 50.9834 687.982 48.607 687.982 44.9343C687.982 41.1674 687.127 38.6066 684.85 38.4055C684.752 38.3964 684.653 38.3915 684.555 38.3911C683.157 38.3911 682.479 39.1085 681.589 40.9241C680.827 42.4857 679.641 44.7653 677.438 49.071C675.532 52.7859 673.414 56.0786 671.592 58.3582C671.084 58.9902 670.683 59.4243 670.307 59.6711C670.055 59.8369 669.813 59.92 669.559 59.92C668.84 59.92 668.315 59.3131 668.139 57.9C668.098 57.5643 668.076 57.1832 668.076 56.7539C668.076 53.8414 669.177 49.1132 671.083 42.1479C672.481 37.0822 671.888 33.6213 668.838 33.6213H668.804L668.802 33.6219C668.111 33.63 667.538 33.88 666.987 34.3143C666.443 34.7418 665.9 35.6657 665.392 36.9076C664.82 38.3066 661.342 45.2833 655.807 48.8774C655.741 50.244 656.515 51.6099 658.082 51.758C659.509 51.8931 660.522 51.2918 661.827 50.4154C661.652 51.1954 661.48 51.9759 661.31 52.757C661.21 53.2132 661.147 53.5066 661.129 53.5879C660.956 54.3707 660.825 55.162 660.734 55.9584C659.953 62.9355 663.187 66.3785 666.975 66.3785C667.608 66.3785 668.234 66.303 668.857 66.1449C673.03 65.0868 677.047 60.3005 681.802 49.2821C681.73 50.4806 681.722 51.6001 681.774 52.639C682.087 58.9539 684.585 60.8483 688.114 60.8483C690.783 60.8483 693.282 59.4556 694.553 57.7246C695.485 56.5005 695.866 55.1494 695.866 54.0942C695.866 53.2752 695.607 52.6212 695.193 52.2892" fill="#EA5252"/>
</svg>
