<svg width="909" height="120" viewBox="0 0 909 120" fill="none" xmlns="http://www.w3.org/2000/svg">
<path d="M79.7531 61.1964C79.7531 67.7539 74.6405 72.586 68.3661 72.586C62.0918 72.586 56.9791 67.7539 56.9791 61.1964C56.9791 54.5928 62.0918 49.8069 68.3661 49.8069C74.6405 49.8069 79.7531 54.5928 79.7531 61.1964ZM74.7684 61.1964C74.7684 57.0987 71.8053 54.2949 68.3661 54.2949C64.927 54.2949 61.9638 57.0987 61.9638 61.1964C61.9638 65.2531 64.927 68.098 68.3661 68.098C71.8053 68.098 74.7684 65.248 74.7684 61.1964Z" fill="#EA4335"/>
<path d="M104.318 61.1964C104.318 67.7539 99.2058 72.586 92.9314 72.586C86.6571 72.586 81.5444 67.7539 81.5444 61.1964C81.5444 54.5979 86.6571 49.8069 92.9314 49.8069C99.2058 49.8069 104.318 54.5928 104.318 61.1964ZM99.3338 61.1964C99.3338 57.0987 96.3706 54.2949 92.9314 54.2949C89.4923 54.2949 86.5291 57.0987 86.5291 61.1964C86.5291 65.2531 89.4923 68.098 92.9314 68.098C96.3706 68.098 99.3338 65.248 99.3338 61.1964Z" fill="#FBBC05"/>
<path d="M127.86 50.495V70.9428C127.86 79.354 122.916 82.7893 117.072 82.7893C111.57 82.7893 108.259 79.0972 107.01 76.0778L111.35 74.2651C112.123 76.1189 114.017 78.3064 117.067 78.3064C120.808 78.3064 123.126 75.9905 123.126 71.6309V69.9928H122.952C121.836 71.3741 119.687 72.5808 116.975 72.5808C111.299 72.5808 106.099 67.6204 106.099 61.2375C106.099 54.8084 111.299 49.8069 116.975 49.8069C119.682 49.8069 121.831 51.0136 122.952 52.3539H123.126V50.5001H127.86V50.495ZM123.479 61.2375C123.479 57.227 120.813 54.2949 117.42 54.2949C113.981 54.2949 111.099 57.227 111.099 61.2375C111.099 65.2069 113.981 68.0979 117.42 68.0979C120.813 68.0979 123.479 65.2069 123.479 61.2375Z" fill="#4285F4"/>
<path d="M135.665 38.5098V71.8876H130.803V38.5098H135.665Z" fill="#34A853"/>
<path d="M154.611 64.945L158.48 67.5331C157.231 69.3869 154.222 72.5809 149.022 72.5809C142.574 72.5809 137.758 67.5793 137.758 61.1913C137.758 54.4182 142.615 49.8018 148.464 49.8018C154.355 49.8018 157.236 54.5055 158.178 57.0473L158.695 58.3414L143.52 64.6472C144.682 66.9323 146.489 68.098 149.022 68.098C151.56 68.098 153.321 66.845 154.611 64.945ZM142.702 60.8473L152.845 56.6211C152.287 55.1987 150.609 54.2076 148.633 54.2076C146.1 54.2076 142.574 56.4517 142.702 60.8473V60.8473Z" fill="#EA4335"/>
<path d="M38.5757 58.2336V53.4015H54.8041C54.9627 54.2437 55.0446 55.2399 55.0446 56.3182C55.0446 59.9436 54.0569 64.4265 50.8737 67.6205C47.7774 70.8556 43.8214 72.5809 38.5808 72.5809C28.8673 72.5809 20.6993 64.6421 20.6993 54.8958C20.6993 45.1495 28.8673 37.2107 38.5808 37.2107C43.9544 37.2107 47.7825 39.3263 50.6587 42.0839L47.2605 45.4935C45.1981 43.5525 42.4038 42.0428 38.5757 42.0428C31.4825 42.0428 25.9348 47.7786 25.9348 54.8958C25.9348 62.013 31.4825 67.7489 38.5757 67.7489C43.1765 67.7489 45.7968 65.8951 47.4755 64.2108C48.8368 62.8449 49.7324 60.8936 50.0855 58.2285L38.5757 58.2336Z" fill="#4285F4"/>
<path fill-rule="evenodd" clip-rule="evenodd" d="M349.062 71.7679C341.016 77.6987 329.353 80.8629 319.312 80.8629C305.233 80.8629 292.558 75.6554 282.968 66.9945C282.215 66.3132 282.89 65.3851 283.794 65.9156C294.143 71.9367 306.938 75.559 320.156 75.559C329.07 75.559 338.876 73.7147 347.893 69.8875C349.255 69.3089 350.394 70.7795 349.062 71.7679" fill="#FF9900"/>
<path fill-rule="evenodd" clip-rule="evenodd" d="M352.407 67.9409C351.383 66.6269 345.608 67.32 343.017 67.6274C342.227 67.7239 342.107 67.0367 342.818 66.5425C347.417 63.306 354.963 64.2402 355.843 65.3251C356.722 66.416 355.614 73.98 351.292 77.5903C350.629 78.1448 349.996 77.8495 350.291 77.1141C351.262 74.6913 353.438 69.2608 352.407 67.9409" fill="#FF9900"/>
<path fill-rule="evenodd" clip-rule="evenodd" d="M343.198 43.6935V40.5473C343.198 40.0712 343.559 39.7517 343.993 39.7517H358.079C358.531 39.7517 358.892 40.0771 358.892 40.5473V43.2414C358.886 43.6935 358.507 44.2841 357.832 45.2183L350.533 55.6392C353.245 55.573 356.108 55.9768 358.567 57.3631C359.121 57.6764 359.272 58.1346 359.314 58.5865V61.9437C359.314 62.4017 358.808 62.9381 358.277 62.6609C353.944 60.3887 348.188 60.1416 343.396 62.685C342.908 62.9503 342.396 62.4198 342.396 61.9618V58.7734C342.396 58.2611 342.402 57.3872 342.914 56.6097L351.37 44.4831H344.011C343.559 44.4831 343.198 44.1637 343.198 43.6935V43.6935ZM291.816 63.3238H287.531C287.121 63.2938 286.796 62.9864 286.765 62.5946V40.6016C286.765 40.1616 287.133 39.812 287.591 39.812H291.587C292.003 39.83 292.334 40.1495 292.365 40.5472V43.4223H292.443C293.486 40.6438 295.444 39.3481 298.084 39.3481C300.766 39.3481 302.442 40.6438 303.647 43.4223C304.684 40.6438 307.041 39.3481 309.566 39.3481C311.362 39.3481 313.327 40.0894 314.526 41.7529C315.883 43.6032 315.605 46.2913 315.605 48.6479L315.599 62.5284C315.599 62.9684 315.232 63.324 314.774 63.324H310.494C310.066 63.2939 309.723 62.9504 309.723 62.5284V50.8719C309.723 49.9436 309.807 47.6291 309.602 46.7493C309.283 45.2726 308.325 44.8567 307.083 44.8567C306.046 44.8567 304.961 45.5498 304.521 46.6589C304.081 47.768 304.124 49.6242 304.124 50.8719V62.5282C304.124 62.9683 303.756 63.3238 303.298 63.3238H299.019C298.585 63.2938 298.247 62.9503 298.247 62.5282L298.241 50.8719C298.241 48.4187 298.645 44.8086 295.601 44.8086C292.521 44.8086 292.642 48.3283 292.642 50.8719V62.5282C292.642 62.9683 292.274 63.3238 291.816 63.3238V63.3238ZM371.019 39.348C377.377 39.348 380.819 44.8085 380.819 51.7518C380.819 58.46 377.016 63.782 371.019 63.782C364.775 63.782 361.375 58.3214 361.375 51.5167C361.375 44.6699 364.817 39.348 371.019 39.348V39.348ZM371.055 43.8381C367.897 43.8381 367.698 48.1415 367.698 50.8235C367.698 53.5118 367.656 59.2495 371.019 59.2495C374.34 59.2495 374.496 54.6207 374.496 51.8C374.496 49.9436 374.418 47.7256 373.858 45.9657C373.375 44.4348 372.417 43.8381 371.055 43.8381H371.055ZM389.064 63.3238H384.797C384.369 63.2938 384.025 62.9503 384.025 62.5282L384.019 40.5292C384.055 40.1254 384.411 39.812 384.845 39.812H388.817C389.191 39.83 389.498 40.0833 389.582 40.4267V43.79H389.661C390.86 40.7824 392.542 39.348 395.501 39.348C397.424 39.348 399.298 40.041 400.504 41.9396C401.625 43.6994 401.625 46.6589 401.625 48.7865V62.6307C401.576 63.0165 401.221 63.3238 400.799 63.3238H396.502C396.11 63.2938 395.784 63.0044 395.742 62.6307V50.6849C395.742 48.2801 396.019 44.7602 393.06 44.7602C392.018 44.7602 391.059 45.4594 390.583 46.5201C389.98 47.8643 389.902 49.2023 389.902 50.6851V62.5282C389.896 62.9683 389.522 63.3238 389.064 63.3238V63.3238ZM331.969 52.8186C331.969 54.4881 332.011 55.8804 331.167 57.3629C330.486 58.5685 329.401 59.3097 328.202 59.3097C326.557 59.3097 325.592 58.0562 325.592 56.2058C325.592 52.5533 328.865 51.8904 331.969 51.8904V52.8186V52.8186ZM336.29 63.2636C336.007 63.5167 335.597 63.5349 335.278 63.3661C333.856 62.1847 333.596 61.6363 332.819 60.5092C330.468 62.908 328.799 63.6253 325.755 63.6253C322.145 63.6253 319.342 61.4012 319.342 56.9473C319.342 53.4695 321.223 51.1009 323.911 49.9436C326.237 48.919 329.486 48.7382 331.969 48.4549V47.9005C331.969 46.8818 332.047 45.6764 331.445 44.7964C330.926 44.0069 329.926 43.6814 329.04 43.6814C327.406 43.6814 325.954 44.5191 325.598 46.255C325.526 46.6407 325.243 47.0204 324.851 47.0385L320.698 46.5926C320.349 46.5142 319.957 46.2309 320.059 45.6945C321.012 40.6559 325.568 39.137 329.643 39.137C331.728 39.137 334.452 39.6915 336.098 41.2707C338.183 43.2174 337.984 45.815 337.984 48.6418V55.3198C337.984 57.3269 338.816 58.2067 339.599 59.2917C339.871 59.6775 339.931 60.1416 339.581 60.4308C338.707 61.1601 337.152 62.5162 336.297 63.2757L336.291 63.2636H336.29ZM275.79 52.8186C275.79 54.4881 275.832 55.8804 274.988 57.3629C274.307 58.5685 273.228 59.3097 272.023 59.3097C270.378 59.3097 269.419 58.0562 269.419 56.2058C269.419 52.5533 272.692 51.8904 275.79 51.8904V52.8186ZM280.111 63.2636C279.828 63.5167 279.418 63.5349 279.099 63.3661C277.677 62.1847 277.423 61.6363 276.64 60.5092C274.289 62.908 272.626 63.6253 269.576 63.6253C265.972 63.6253 263.163 61.4012 263.163 56.9473C263.163 53.4695 265.05 51.1009 267.732 49.9436C270.058 48.919 273.307 48.7382 275.79 48.4549V47.9005C275.79 46.8818 275.868 45.6764 275.272 44.7964C274.747 44.0069 273.747 43.6814 272.867 43.6814C271.234 43.6814 269.775 44.5191 269.419 46.255C269.347 46.6407 269.064 47.0204 268.678 47.0385L264.519 46.5926C264.17 46.5142 263.784 46.2309 263.88 45.6945C264.839 40.6559 269.389 39.137 273.464 39.137C275.549 39.137 278.273 39.6915 279.919 41.2707C282.004 43.2174 281.805 45.815 281.805 48.6418V55.3198C281.805 57.3269 282.637 58.2067 283.42 59.2917C283.698 59.6775 283.758 60.1416 283.408 60.4308C282.534 61.1601 280.979 62.5162 280.124 63.2757L280.112 63.2636" fill="black"/>
<path d="M550.457 70.0695L552.187 66.0529C554.056 67.4476 556.538 68.1728 558.993 68.1728C560.806 68.1728 561.949 67.4755 561.949 66.4155C561.922 63.4589 551.099 65.774 551.015 58.3544C550.987 54.5888 554.335 51.6879 559.076 51.6879C561.894 51.6879 564.711 52.3853 566.719 53.9752L565.101 58.0755C563.26 56.904 560.973 56.0672 558.798 56.0672C557.319 56.0672 556.343 56.7645 556.343 57.6571C556.371 60.558 567.277 58.9681 567.389 66.0529C567.389 69.9022 564.125 72.6078 559.439 72.6078C556.008 72.6078 552.856 71.7989 550.457 70.0695ZM616.815 64.6025C615.951 66.1087 614.333 67.1407 612.464 67.1407C609.702 67.1407 607.471 64.9093 607.471 62.1479C607.471 59.3865 609.702 57.155 612.464 57.155C614.333 57.155 615.951 58.187 616.815 59.6933L621.585 57.0434C619.8 53.8636 616.369 51.6879 612.464 51.6879C606.69 51.6879 602.004 56.374 602.004 62.1479C602.004 67.9218 606.69 72.6078 612.464 72.6078C616.397 72.6078 619.8 70.46 621.585 67.2523L616.815 64.6025ZM569.787 43.0132H575.757V72.2173H569.787V43.0132ZM623.928 43.0132V72.2173H629.897V63.4589L636.982 72.2173H644.625L635.615 61.8132L643.955 52.1063H636.647L629.897 60.1675V43.0132H623.928ZM593.497 64.6583C592.632 66.0808 590.847 67.1407 588.838 67.1407C586.077 67.1407 583.846 64.9093 583.846 62.1479C583.846 59.3865 586.077 57.155 588.838 57.155C590.847 57.155 592.632 58.2707 593.497 59.7212V64.6583ZM593.497 52.1063V54.4773C592.52 52.8316 590.094 51.6879 587.555 51.6879C582.311 51.6879 578.183 56.3182 578.183 62.12C578.183 67.9218 582.311 72.6078 587.555 72.6078C590.094 72.6078 592.52 71.4642 593.497 69.8185V72.1894H599.466V52.1063H593.497Z" fill="black"/>
<path d="M513.555 64.6304C513.555 66.6666 511.909 68.3123 509.873 68.3123C507.837 68.3123 506.191 66.6666 506.191 64.6304C506.191 62.5942 507.837 60.9485 509.873 60.9485H513.555V64.6304ZM515.396 64.6304C515.396 62.5942 517.041 60.9485 519.078 60.9485C521.114 60.9485 522.76 62.5942 522.76 64.6304V73.8351C522.76 75.8713 521.114 77.517 519.078 77.517C517.041 77.517 515.396 75.8713 515.396 73.8351V64.6304Z" fill="#E01E5A"/>
<path d="M519.078 49.8469C517.041 49.8469 515.396 48.2012 515.396 46.165C515.396 44.1288 517.041 42.4832 519.078 42.4832C521.114 42.4832 522.76 44.1288 522.76 46.165V49.8469H519.078ZM519.078 51.7158C521.114 51.7158 522.76 53.3615 522.76 55.3977C522.76 57.4339 521.114 59.0796 519.078 59.0796H509.845C507.809 59.0796 506.163 57.4339 506.163 55.3977C506.163 53.3615 507.809 51.7158 509.845 51.7158H519.078Z" fill="#36C5F0"/>
<path d="M533.833 55.3977C533.833 53.3615 535.479 51.7158 537.515 51.7158C539.551 51.7158 541.197 53.3615 541.197 55.3977C541.197 57.4339 539.551 59.0796 537.515 59.0796H533.833V55.3977ZM531.992 55.3977C531.992 57.4339 530.347 59.0796 528.31 59.0796C526.274 59.0796 524.628 57.4339 524.628 55.3977V46.165C524.628 44.1288 526.274 42.4832 528.31 42.4832C530.347 42.4832 531.992 44.1288 531.992 46.165V55.3977Z" fill="#2EB67D"/>
<path d="M528.31 70.1532C530.347 70.1532 531.992 71.7989 531.992 73.8351C531.992 75.8713 530.347 77.517 528.31 77.517C526.274 77.517 524.628 75.8713 524.628 73.8351V70.1532H528.31ZM528.31 68.3123C526.274 68.3123 524.628 66.6666 524.628 64.6304C524.628 62.5942 526.274 60.9485 528.31 60.9485H537.543C539.579 60.9485 541.225 62.5942 541.225 64.6304C541.225 66.6666 539.579 68.3123 537.543 68.3123H528.31Z" fill="#ECB22E"/>
<path fill-rule="evenodd" clip-rule="evenodd" d="M876.778 74.1141H880.751L887.625 56.6941H883.692L880.851 65.3698L877.857 56.6938H873.468L878.694 69.2769L876.778 74.1141ZM857.058 60.8293V69.7588H853.05V56.6941H855.866L856.704 57.8353C857.794 56.9226 858.961 56.3892 860.306 56.3892C862.107 56.3892 863.477 56.9224 864.314 58.2421C865.531 57.1252 866.826 56.3892 868.475 56.3892C871.57 56.3892 873.371 57.988 873.371 62.326V69.7588H869.363V62.7828C869.363 60.7787 868.551 60.1949 867.257 60.1949C866.496 60.1949 865.862 60.3975 865.151 60.8543C865.203 61.3112 865.228 61.7928 865.228 62.326V69.7588H861.219V62.7828C861.219 60.7787 860.407 60.1949 859.088 60.1949C858.352 60.1949 857.743 60.3727 857.058 60.8293V60.8293ZM843.078 61.9455H848.229C847.95 60.2462 847.036 59.4339 845.667 59.4339C844.499 59.4339 843.384 60.1191 843.079 61.9457L843.078 61.9455ZM845.946 70.0129C842.089 70.0129 838.994 68.1101 838.994 63.0868C838.994 58.3933 841.988 56.3644 845.438 56.3644C849.599 56.3644 851.451 59.2813 851.451 63.8733H843.053C843.333 66.131 844.728 66.7911 846.58 66.7911C848.371 66.7911 849.772 66.349 850.857 65.6195L850.312 68.7991C849.278 69.5984 848.036 70.0129 845.946 70.0129V70.0129ZM831.02 66.6389C831.933 66.6389 832.618 66.4862 833.329 65.9538V60.2715C832.695 59.8903 832.061 59.7133 831.148 59.7133C829.194 59.7133 828.078 61.0323 828.078 63.239C828.078 65.396 829.22 66.6394 831.021 66.6394L831.02 66.6389ZM834.115 68.7953C833.075 69.5818 831.883 70.0634 830.183 70.0634C826.606 70.0634 824.019 67.8565 824.019 63.3153C824.019 58.7996 826.987 56.3644 830.792 56.3644C831.68 56.3644 832.543 56.4913 833.329 56.7955V51.25H837.338V69.7588H834.8L834.115 68.7953ZM807.035 62.0214V52.3388H811.195V61.9453C811.195 65.3955 812.743 66.1057 814.874 66.1057C817.183 66.1057 818.375 65.0907 818.375 61.9453V52.3388H822.561V62.0214C822.561 67.7296 820.075 70.1143 814.671 70.1143C809.648 70.1143 807.035 68.0593 807.035 62.0214H807.035Z" fill="#645A53"/>
<path fill-rule="evenodd" clip-rule="evenodd" d="M796.432 62.7472C796.268 62.6134 796.074 62.5222 795.867 62.4818C794.646 63.698 793.157 64.9791 791.835 65.8401C791.225 66.2456 790.458 66.4482 789.95 66.4482C788.78 66.4482 788.272 65.3332 788.119 63.5607C787.916 61.1801 787.779 58.3285 787.779 53.9212C787.779 49.4009 786.753 46.328 784.02 46.0867C783.902 46.0757 783.784 46.07 783.666 46.0694C781.988 46.0694 781.175 46.9303 780.107 49.1091C779.192 50.9829 777.769 53.7184 775.126 58.8853C772.838 63.3432 770.296 67.2944 768.11 70.03C767.501 70.7883 767.02 71.3092 766.568 71.6054C766.266 71.8043 765.975 71.904 765.67 71.904C764.807 71.904 764.177 71.1758 763.967 69.4801C763.917 69.0773 763.891 68.6199 763.891 68.1048C763.891 64.6097 765.213 58.9359 767.5 50.5776C769.177 44.4987 768.466 40.3457 764.806 40.3457H764.765L764.762 40.3464C763.933 40.3561 763.246 40.6561 762.584 41.1773C761.932 41.6902 761.28 42.799 760.671 44.2892C759.984 45.968 755.811 54.34 749.168 58.6529C749.09 60.2929 750.018 61.932 751.899 62.1097C753.611 62.2718 754.827 61.5503 756.392 60.4986C756.182 61.4346 755.975 62.3712 755.772 63.3085C755.653 63.8559 755.577 64.208 755.554 64.3056C755.348 65.245 755.19 66.1945 755.081 67.1502C754.144 75.5227 758.025 79.6543 762.57 79.6543C763.329 79.6543 764.081 79.5637 764.829 79.3739C769.836 78.1043 774.656 72.3607 780.362 59.1387C780.276 60.5769 780.267 61.9202 780.329 63.1669C780.705 70.7447 783.702 73.0181 787.937 73.0181C791.139 73.0181 794.138 71.3468 795.663 69.2697C796.782 67.8006 797.24 66.1794 797.24 64.9132C797.24 63.9304 796.928 63.1455 796.432 62.7472" fill="#EA5252"/>
</svg>
