<svg width="55" height="55" viewBox="0 0 55 55" fill="none" xmlns="http://www.w3.org/2000/svg">
<circle cx="27.5" cy="27.5" r="27.5" fill="#131E47" fill-opacity="0.2"/>
<path d="M35.3269 19.4616H34.0577V18.4465C34.0577 17.9575 33.6902 17.5577 33.2422 17.5577H29.1604C28.7136 17.5577 28.3462 17.9575 28.3462 18.4465V19.4616H20.712L18.8269 23.2693H20.1358V25.8077H19.9239L18.8666 27.077L19.9239 28.3462H20.1555V29.0278C20.1555 29.2001 20.2884 29.3394 20.4531 29.3394C20.9453 29.3394 21.3457 29.7595 21.3457 30.2758C21.3457 30.792 20.9453 31.2121 20.4531 31.2121C19.961 31.2121 19.5605 30.792 19.5605 30.2758C19.5605 30.1035 19.4273 29.9642 19.2629 29.9642C19.0982 29.9642 18.9653 30.1035 18.9653 30.2758C18.9659 31.1369 19.6329 31.8366 20.4531 31.8366C21.273 31.8366 21.9407 31.1369 21.9407 30.2761C21.9407 29.5225 21.4288 28.8917 20.7508 28.7473V28.3462H20.9821L22.0397 27.077L20.9821 25.8077H20.7704V23.2693H28.3462V25.5536C28.3462 25.975 28.6194 26.3281 28.9808 26.4189V36.5962H29.8137V34.6924L32.5901 35.6443L29.8137 36.5962H33.4231V26.4186C33.7848 26.3281 34.0577 25.975 34.0577 25.5536V23.2693H35.3269V22.3174H34.6676L35.3269 21.0656V19.4616ZM20.3002 22.3174L21.0414 20.7946L21.8429 22.3174H20.3002ZM21.7033 20.4135H23.0211L22.3624 21.6653L21.7033 20.4135V20.4135ZM22.8818 22.3174L23.5408 21.0656L24.2002 22.3174H22.8818ZM24.0606 20.4135H25.3784L24.7193 21.6653L24.0606 20.4135ZM25.2394 22.3174L25.8981 21.0656L26.5569 22.3174H25.2394ZM26.4179 20.4135H27.7357L27.0769 21.6653L26.4179 20.4135ZM28.3462 22.3174H27.5964L28.2551 21.0656L28.3462 21.2385V22.3174ZM32.5901 34.6924L29.8137 33.7404L32.5901 32.7885V34.6924ZM29.8137 32.7885V30.8847L32.5901 31.8372L29.8137 32.7885ZM32.5901 30.8847L29.8137 29.9327L32.5901 28.9808V30.8847ZM29.8137 28.9808V27.0776L32.5901 28.0289L29.8137 28.9808ZM32.5901 27.0776L30.7387 26.4424H32.5901V27.0776ZM33.0661 21.7614C33.0661 22.067 32.8516 22.3174 32.5901 22.3174H29.7337C29.4723 22.3174 29.2584 22.067 29.2584 21.7614V19.0675C29.2584 18.76 29.4723 18.5097 29.7337 18.5097H32.5901C32.8516 18.5097 33.0661 18.76 33.0661 19.0675V21.7614V21.7614ZM34.1481 21.6653L34.0577 21.4933V20.4135H34.8069L34.1481 21.6653" fill="#131E47"/>
</svg>
