<svg width="55" height="55" viewBox="0 0 55 55" fill="none" xmlns="http://www.w3.org/2000/svg">
<circle cx="27.5" cy="27.5" r="27.5" fill="#131E47" fill-opacity="0.2"/>
<path d="M20.6703 21.0923C20.6703 20.4354 20.976 19.8054 21.52 19.3409C22.0641 18.8764 22.802 18.6155 23.5714 18.6155C24.3409 18.6155 25.0788 18.8764 25.6228 19.3409C26.1669 19.8054 26.4725 20.4354 26.4725 21.0923C26.4725 21.7492 26.1669 22.3791 25.6228 22.8436C25.0788 23.3081 24.3409 23.5691 23.5714 23.5691C22.802 23.5691 22.0641 23.3081 21.52 22.8436C20.976 22.3791 20.6703 21.7492 20.6703 21.0923V21.0923Z" fill="#131E47"/>
<path d="M30.5035 23.0542L30.5645 23.0938C31.1799 23.4833 31.9508 23.6491 32.709 23.5551C33.4671 23.4611 34.151 23.1149 34.6112 22.5921C35.0715 22.0692 35.2708 21.4121 35.1657 20.7643C35.0606 20.1164 34.6596 19.5303 34.0502 19.1339C33.4409 18.7376 32.6726 18.563 31.913 18.6485C31.1535 18.7339 30.4644 19.0724 29.9961 19.59C29.5278 20.1077 29.3183 20.7624 29.4134 21.4114C29.5084 22.0604 29.9003 22.651 30.5035 23.0542V23.0542Z" fill="#131E47"/>
<path d="M25.4107 24.8074C25.5929 24.5128 25.8428 24.2527 26.1455 24.0425C26.4482 23.8323 26.7974 23.6764 27.1722 23.5842C27.5471 23.4919 27.9399 23.4651 28.3272 23.5054C28.7145 23.5457 29.0883 23.6523 29.4262 23.8188C29.7641 23.9853 30.0592 24.2083 30.2939 24.4744C30.5285 24.7405 30.6979 25.0443 30.7918 25.3676C30.8858 25.6908 30.9024 26.027 30.8406 26.3559C30.7789 26.6848 30.6401 26.9996 30.4325 27.2817C30.0332 27.8242 29.4031 28.2136 28.6747 28.3679C27.9462 28.5222 27.176 28.4295 26.5259 28.1092C25.8759 27.7889 25.3965 27.2659 25.1885 26.6502C24.9806 26.0345 25.0602 25.374 25.4107 24.8074V24.8074Z" fill="#131E47"/>
<path d="M19.9451 24.8076H23.818C23.6585 25.1952 23.5714 25.6125 23.5714 26.0459C23.5714 26.997 23.9906 27.8663 24.6797 28.5227H24.2967C23.5489 28.5226 22.8192 28.7198 22.2077 29.0874C21.5962 29.4549 21.1327 29.9748 20.8807 30.5759C20.3938 30.4089 19.9379 30.1824 19.5273 29.9035C18.4365 29.1543 17.7692 28.0471 17.7692 26.6651C17.7692 26.1725 17.9985 25.7 18.4065 25.3516C18.8146 25.0033 19.368 24.8076 19.9451 24.8076V24.8076Z" fill="#131E47"/>
<path d="M31.5494 28.5227C33.1233 28.5227 34.4636 29.3784 34.964 30.5759C35.4572 30.4038 35.9142 30.1796 36.3189 29.9035C37.4097 29.1543 38.0769 28.0471 38.0769 26.6651C38.0769 26.1725 37.8477 25.7 37.4396 25.3516C37.0316 25.0033 36.4782 24.8076 35.9011 24.8076H32.0281C32.1877 25.1952 32.2747 25.6125 32.2747 26.0459C32.2761 26.96 31.8813 27.8422 31.1665 28.5227H31.5494Z" fill="#131E47"/>
<path d="M33.5614 30.9101C33.6673 31.1281 33.7253 31.3683 33.7253 31.6185C33.7253 33.0005 33.0595 34.1077 31.9672 34.8569C30.8924 35.5938 29.4505 35.9529 27.9231 35.9529C26.3956 35.9529 24.9538 35.5938 23.8789 34.8569C22.7881 34.1077 22.1209 33.0005 22.1209 31.6185C22.1201 31.3744 22.1758 31.1325 22.2849 30.9068C22.394 30.6812 22.5542 30.4761 22.7564 30.3035C22.9586 30.1309 23.1988 29.9941 23.4631 29.9009C23.7275 29.8078 24.0107 29.7602 24.2967 29.7609H31.5495C31.9804 29.7608 32.4017 29.87 32.7599 30.0746C33.1181 30.2792 33.397 30.57 33.5614 30.9101Z" fill="#131E47"/>
</svg>
