<svg width="63" height="63" viewBox="0 0 63 63" fill="none" xmlns="http://www.w3.org/2000/svg">
<path d="M42.0425 25.7234C41.8454 25.683 41.6976 25.6628 41.5991 25.6628C40.8699 25.6628 40.2393 25.9152 39.7072 26.4201C38.5051 25.8748 37.3818 25.4306 36.3374 25.0873C34.6229 24.5218 32.8296 24.0574 30.9574 23.6939C30.7801 23.2092 30.514 22.8053 30.1593 22.4822C30.652 20.0994 31.3121 17.9386 32.1398 16C34.6229 16.1817 36.9039 16.9188 38.983 18.2112C41.0621 19.5036 42.7421 21.1999 44.023 23.3001C43.2938 24.1079 42.6337 24.9156 42.0425 25.7234ZM28.3266 21.7856C27.8142 21.7856 27.3314 21.9269 26.8781 22.2096C25.2819 20.998 23.6758 19.9681 22.0598 19.12C24.5035 17.2217 27.2427 16.1817 30.2775 16C29.509 17.7569 28.8882 19.6854 28.4152 21.7856H28.3266ZM18.0692 23.6636C18.7392 22.5125 19.5866 21.4221 20.6114 20.3922C21.9514 21.099 23.3408 21.9673 24.7794 22.9972C22.2372 22.9366 20.0005 23.1587 18.0692 23.6636ZM25.4888 24.8752C25.5282 25.5012 25.7401 26.0515 26.1243 26.5261C26.5086 27.0006 26.9865 27.3187 27.558 27.4802C27.4398 28.8938 27.3806 30.2367 27.3806 31.5089C27.3806 32.3975 27.4102 33.4172 27.4693 34.5683C27.0358 34.7097 26.6515 34.952 26.3165 35.2953C25.2523 34.8712 24.2276 34.3866 23.2422 33.8413C23.459 33.3971 23.5674 32.9427 23.5674 32.4782C23.5674 31.6705 23.2915 30.9839 22.7397 30.4184C22.1879 29.853 21.5179 29.5703 20.7296 29.5703C19.8625 29.5703 19.1432 29.9136 18.5717 30.6002C17.744 29.8328 17.005 29.0352 16.3547 28.2072C16.5321 27.3389 16.7981 26.4806 17.1528 25.6325C19.5571 24.9459 22.3357 24.6935 25.4888 24.8752ZM17.9214 32.7206C17.9805 33.4677 18.2811 34.0988 18.823 34.6137C19.3649 35.1287 20.0005 35.3862 20.7296 35.3862C20.9464 35.3862 21.1829 35.3458 21.4391 35.265C22.7003 36.0122 24.0502 36.6584 25.4888 37.2036V37.3248C25.4888 38.1123 25.7499 38.7838 26.2721 39.3391C26.7944 39.8944 27.4398 40.1923 28.2083 40.2327C28.701 42.6963 29.3907 44.948 30.2775 46.9875C28.3069 46.8664 26.4446 46.3767 24.6907 45.5184C22.9368 44.6602 21.4243 43.5445 20.1532 42.1713C18.8821 40.7981 17.8721 39.1826 17.1233 37.3248C16.3744 35.4669 16 33.5283 16 31.5089C16 31.4887 16.0099 31.2161 16.0296 30.6911C16.5813 31.3979 17.212 32.0743 17.9214 32.7206ZM30.8096 38.6879C32.2285 38.9504 33.6572 39.122 35.0958 39.2028C35.2338 39.6067 35.4506 39.9803 35.7462 40.3236C35.2929 42.4439 35.017 44.5037 34.9185 46.5029C33.9134 46.7654 32.9872 46.927 32.1398 46.9875C31.2136 44.8268 30.4943 42.3833 29.9819 39.6572C30.3367 39.4148 30.6126 39.0917 30.8096 38.6879ZM39.9733 40.1418C40.2294 39.8187 40.4068 39.4754 40.5053 39.1119C41.9439 38.9908 43.3333 38.7989 44.6733 38.5364C43.7274 40.4346 42.4267 42.0804 40.7714 43.4738C40.594 42.4237 40.328 41.3131 39.9733 40.1418ZM35.155 37.2642C33.7755 37.1834 32.4157 37.0017 31.0757 36.7189C30.8589 35.7093 30.2972 35.0126 29.3907 34.6289C29.3119 33.4374 29.2725 32.3975 29.2725 31.5089C29.2725 30.1761 29.3316 28.7928 29.4499 27.3591C29.4893 27.3591 29.5385 27.3389 29.5977 27.2985C29.6568 27.2581 29.6962 27.2379 29.7159 27.2379C30.4845 28.0053 31.1545 28.7121 31.726 29.3583C33.4405 31.2969 34.8988 33.498 36.1009 35.9617C35.6673 36.305 35.352 36.7391 35.155 37.2642ZM37.7858 41.202C37.8252 41.202 37.9336 41.1919 38.111 41.1717C38.446 42.4035 38.6923 43.6253 38.85 44.8369C38.2785 45.1802 37.5887 45.5235 36.7808 45.8668C36.9187 44.2917 37.1552 42.7266 37.4902 41.1717C37.6479 41.1919 37.7464 41.202 37.7858 41.202ZM37.638 33.9625C37.6183 34.0029 37.5937 34.0634 37.5641 34.1442C37.5345 34.225 37.5099 34.2856 37.4902 34.326C36.2487 32.0239 34.7904 29.9338 33.1153 28.0558C32.5044 27.349 31.7753 26.5816 30.9279 25.7537C30.9476 25.7537 30.9623 25.7385 30.9722 25.7082L30.987 25.6628C32.6423 26.0061 34.2287 26.4302 35.7462 26.935C36.6724 27.2379 37.6873 27.6418 38.7909 28.1466C38.7514 28.3486 38.7317 28.5 38.7317 28.601C38.7317 29.2068 38.9091 29.7621 39.2638 30.267C38.6135 31.5392 38.0716 32.771 37.638 33.9625ZM39.0273 35.7193C39.2638 35.0126 39.3821 34.6491 39.3821 34.6289C39.7762 33.6192 40.2689 32.5388 40.8601 31.3878C41.1162 31.4685 41.3626 31.5089 41.5991 31.5089C42.2691 31.5089 42.8701 31.2767 43.4022 30.8122C44.3679 31.4988 45.3138 32.2662 46.24 33.1143C46.1218 34.2654 45.8853 35.3761 45.5306 36.4463C43.9146 36.7896 42.21 37.032 40.4167 37.1733C40.1605 36.5271 39.6974 36.0425 39.0273 35.7193ZM44.4368 28.5707C44.4368 27.9043 44.2201 27.2985 43.7865 26.7533C44.2004 26.208 44.6142 25.7133 45.028 25.269C45.7375 26.9249 46.1513 28.6313 46.2696 30.3882C45.6192 29.8833 44.9886 29.4289 44.3777 29.0251C44.4171 28.8433 44.4368 28.6919 44.4368 28.5707Z" fill="#E74C0A"/>
<path d="M0 9C0 4.02944 4.02944 0 9 0H54C58.9706 0 63 4.02944 63 9V54C63 58.9706 58.9706 63 54 63H9C4.02944 63 0 58.9706 0 54V9Z" fill="#E74C0A" fill-opacity="0.2"/>
</svg>
