<svg width="139" height="46" viewBox="0 0 139 46" fill="none" xmlns="http://www.w3.org/2000/svg">
<path d="M59.7531 24.1964C59.7531 30.7539 54.6405 35.586 48.3661 35.586C42.0918 35.586 36.9791 30.7539 36.9791 24.1964C36.9791 17.5928 42.0918 12.8069 48.3661 12.8069C54.6405 12.8069 59.7531 17.5928 59.7531 24.1964ZM54.7684 24.1964C54.7684 20.0987 51.8053 17.2949 48.3661 17.2949C44.927 17.2949 41.9638 20.0987 41.9638 24.1964C41.9638 28.2531 44.927 31.098 48.3661 31.098C51.8053 31.098 54.7684 28.248 54.7684 24.1964Z" fill="#EA4335"/>
<path d="M84.3184 24.1964C84.3184 30.7539 79.2058 35.586 72.9314 35.586C66.657 35.586 61.5444 30.7539 61.5444 24.1964C61.5444 17.5979 66.657 12.8069 72.9314 12.8069C79.2058 12.8069 84.3184 17.5928 84.3184 24.1964ZM79.3337 24.1964C79.3337 20.0987 76.3705 17.2949 72.9314 17.2949C69.4922 17.2949 66.5291 20.0987 66.5291 24.1964C66.5291 28.2531 69.4922 31.098 72.9314 31.098C76.3705 31.098 79.3337 28.248 79.3337 24.1964Z" fill="#FBBC05"/>
<path d="M107.86 13.495V33.9428C107.86 42.354 102.916 45.7893 97.0718 45.7893C91.5702 45.7893 88.2591 42.0972 87.0103 39.0778L91.3502 37.2651C92.123 39.1189 94.0165 41.3064 97.0667 41.3064C100.808 41.3064 103.126 38.9905 103.126 34.6309V32.9928H102.952C101.836 34.3741 99.687 35.5808 96.9746 35.5808C91.299 35.5808 86.0994 30.6204 86.0994 24.2375C86.0994 17.8084 91.299 12.8069 96.9746 12.8069C99.6819 12.8069 101.831 14.0136 102.952 15.3539H103.126V13.5001H107.86V13.495ZM103.479 24.2375C103.479 20.227 100.813 17.2949 97.4198 17.2949C93.9807 17.2949 91.0994 20.227 91.0994 24.2375C91.0994 28.2069 93.9807 31.0979 97.4198 31.0979C100.813 31.0979 103.479 28.2069 103.479 24.2375Z" fill="#4285F4"/>
<path d="M115.665 1.50977V34.8876H110.803V1.50977H115.665Z" fill="#34A853"/>
<path d="M134.611 27.945L138.48 30.5331C137.231 32.3869 134.222 35.5809 129.022 35.5809C122.574 35.5809 117.758 30.5793 117.758 24.1913C117.758 17.4182 122.615 12.8018 128.464 12.8018C134.355 12.8018 137.236 17.5055 138.178 20.0473L138.695 21.3414L123.52 27.6472C124.682 29.9323 126.489 31.098 129.022 31.098C131.56 31.098 133.321 29.845 134.611 27.945ZM122.702 23.8473L132.845 19.6211C132.287 18.1987 130.609 17.2076 128.633 17.2076C126.1 17.2076 122.574 19.4517 122.702 23.8473V23.8473Z" fill="#EA4335"/>
<path d="M18.5756 21.2336V16.4015H34.804C34.9627 17.2437 35.0446 18.2399 35.0446 19.3182C35.0446 22.9436 34.0568 27.4265 30.8736 30.6205C27.7773 33.8556 23.8213 35.5809 18.5807 35.5809C8.86722 35.5809 0.69928 27.6421 0.69928 17.8958C0.69928 8.14949 8.86722 0.210693 18.5807 0.210693C23.9544 0.210693 27.7825 2.32634 30.6586 5.08386L27.2605 8.49353C25.198 6.55248 22.4037 5.04278 18.5756 5.04278C11.4824 5.04278 5.93475 10.7786 5.93475 17.8958C5.93475 25.013 11.4824 30.7489 18.5756 30.7489C23.1765 30.7489 25.7968 28.8951 27.4754 27.2108C28.8367 25.8449 29.7323 23.8936 30.0855 21.2285L18.5756 21.2336Z" fill="#4285F4"/>
</svg>
