<svg width="55" height="55" viewBox="0 0 55 55" fill="none" xmlns="http://www.w3.org/2000/svg">
<circle cx="27.5" cy="27.5" r="27.5" fill="#131E47" fill-opacity="0.2"/>
<g clip-path="url(#clip0_549_68)">
<path d="M35.3005 26.2837L35.5385 30.4616C35.5737 31.0697 35.2123 31.6338 34.4543 32.1539C33.6963 32.6739 32.6607 33.086 31.3474 33.39C30.0341 33.6941 28.6106 33.8462 27.0769 33.8462C25.5433 33.8462 24.1198 33.6941 22.8065 33.39C21.4932 33.086 20.4575 32.6739 19.6995 32.1539C18.9415 31.6338 18.5801 31.0697 18.6154 30.4616L18.8534 26.2837L26.4423 28.6767C26.6362 28.7384 26.8478 28.7692 27.0769 28.7692C27.3061 28.7692 27.5176 28.7384 27.7115 28.6767L35.3005 26.2837ZM42.3077 22C42.3077 22.2027 42.2107 22.3394 42.0168 22.4099L27.2091 27.0637C27.1739 27.0725 27.1298 27.0769 27.0769 27.0769C27.024 27.0769 26.98 27.0725 26.9447 27.0637L18.3245 24.3402C17.9455 24.6398 17.6326 25.1312 17.3858 25.8143C17.139 26.4974 16.9892 27.2841 16.9363 28.1743C17.4916 28.4916 17.7692 28.972 17.7692 29.6154C17.7692 30.2236 17.5136 30.6951 17.0024 31.0301L17.7692 36.7548C17.7869 36.8782 17.7516 36.9884 17.6635 37.0854C17.5841 37.1823 17.4784 37.2308 17.3462 37.2308H14.8077C14.6755 37.2308 14.5697 37.1823 14.4904 37.0854C14.4023 36.9884 14.367 36.8782 14.3846 36.7548L15.1514 31.0301C14.6402 30.6951 14.3846 30.2236 14.3846 29.6154C14.3846 28.972 14.6711 28.4828 15.244 28.1479C15.341 26.3233 15.7728 24.869 16.5397 23.7849L12.137 22.4099C11.9431 22.3394 11.8462 22.2027 11.8462 22C11.8462 21.7973 11.9431 21.6607 12.137 21.5902L26.9447 16.9363C26.98 16.9275 27.024 16.9231 27.0769 16.9231C27.1298 16.9231 27.1739 16.9275 27.2091 16.9363L42.0168 21.5902C42.2107 21.6607 42.3077 21.7973 42.3077 22Z" fill="#131E47"/>
</g>
<defs>
<clipPath id="clip0_549_68">
<rect width="30.4615" height="20.3077" fill="white" transform="translate(11.8462 16.9231)"/>
</clipPath>
</defs>
</svg>
