<svg width="63" height="63" viewBox="0 0 63 63" fill="none" xmlns="http://www.w3.org/2000/svg">
<path d="M39.144 46.9877C40.8118 46.9877 42.168 45.5979 42.168 43.8889V19.0988C42.168 17.3898 40.8118 16 39.144 16H24.024C22.3563 16 21 17.3898 21 19.0988V43.8889C21 45.5979 22.3563 46.9877 24.024 46.9877H39.144ZM31.584 39.2408C31.985 39.2408 32.3696 39.404 32.6532 39.6946C32.9367 39.9851 33.096 40.3792 33.096 40.7901C33.096 41.2011 32.9367 41.5952 32.6532 41.8857C32.3696 42.1763 31.985 42.3395 31.584 42.3395C31.183 42.3395 30.7984 42.1763 30.5149 41.8857C30.2313 41.5952 30.072 41.2011 30.072 40.7901C30.072 40.3792 30.2313 39.9851 30.5149 39.6946C30.7984 39.404 31.183 39.2408 31.584 39.2408Z" fill="#06A61F"/>
<rect width="63" height="63" rx="9" fill="#06A61F" fill-opacity="0.2"/>
</svg>
