<svg width="55" height="55" viewBox="0 0 55 55" fill="none" xmlns="http://www.w3.org/2000/svg">
<circle cx="27.5" cy="27.5" r="27.5" fill="#131E47" fill-opacity="0.2"/>
<path d="M29.9665 23.1418C29.7216 23.142 29.4843 23.227 29.2951 23.3825C29.1058 23.538 28.9764 23.7542 28.9287 23.9945C28.8811 24.2347 28.9182 24.484 29.0337 24.7C29.1493 24.9159 29.3361 25.0851 29.5624 25.1787C29.7887 25.2723 30.0405 25.2846 30.2749 25.2134C30.5092 25.1422 30.7116 24.9919 30.8476 24.7882C30.9835 24.5845 31.0447 24.34 31.0206 24.0963C30.9965 23.8526 30.8886 23.6247 30.7154 23.4516C30.6171 23.3532 30.5004 23.2751 30.3719 23.222C30.2434 23.1688 30.1056 23.1416 29.9665 23.1418V23.1418Z" fill="#131E47"/>
<path d="M35.86 18.9086C35.8598 18.9074 35.8598 18.9062 35.86 18.905C35.8265 18.758 35.7525 18.6233 35.6465 18.5161C35.5404 18.4088 35.4065 18.3334 35.2599 18.2982C34.0779 18.0098 32.2185 18.3172 30.158 19.1422C28.0812 19.9752 26.1353 21.2047 24.8201 22.5224C24.3985 22.9417 24.0069 23.3901 23.648 23.8642C22.7623 23.8245 21.9822 23.9506 21.3249 24.2374C19.0348 25.2452 18.3807 27.8246 18.2066 28.8836C18.1814 29.0341 18.1913 29.1883 18.2354 29.3343C18.2796 29.4804 18.3568 29.6143 18.4612 29.7256C18.5655 29.8369 18.6942 29.9226 18.8371 29.976C18.98 30.0295 19.1333 30.0493 19.285 30.0338H19.2902L21.8413 29.7554C21.8445 29.7879 21.8481 29.8177 21.8509 29.845C21.8836 30.1559 22.0223 30.446 22.2435 30.6668L23.4886 31.9127C23.709 32.1342 23.9991 32.2731 24.31 32.3057L24.3953 32.3149L24.1176 34.8628V34.868C24.1034 35.0052 24.118 35.1439 24.1605 35.2752C24.203 35.4064 24.2723 35.5274 24.3642 35.6303C24.4561 35.7332 24.5684 35.8158 24.694 35.8729C24.8197 35.9299 24.9558 35.9601 25.0937 35.9615C25.1489 35.9616 25.2039 35.9571 25.2584 35.948C26.3233 35.7767 28.9014 35.1306 29.9065 32.8281C30.1909 32.1752 30.3166 31.3982 30.2813 30.5141C30.7576 30.1561 31.2076 29.7644 31.6279 29.3421C32.9539 28.0229 34.1874 26.0929 35.0116 24.0462C35.8322 22.0091 36.1412 20.1358 35.86 18.9086V18.9086ZM31.6136 25.845C31.2877 26.1712 30.8724 26.3935 30.4201 26.4836C29.9679 26.5737 29.4991 26.5277 29.073 26.3514C28.6469 26.175 28.2827 25.8762 28.0265 25.4928C27.7702 25.1095 27.6335 24.6587 27.6335 24.1975C27.6335 23.7364 27.7702 23.2856 28.0265 22.9022C28.2827 22.5189 28.6469 22.2201 29.073 22.0437C29.4991 21.8674 29.9679 21.8213 30.4201 21.9115C30.8724 22.0016 31.2877 22.2239 31.6136 22.5501C31.8321 22.7653 32.0055 23.0217 32.1239 23.3046C32.2424 23.5874 32.3033 23.8909 32.3033 24.1975C32.3033 24.5041 32.2424 24.8077 32.1239 25.0905C32.0055 25.3733 31.8321 25.6298 31.6136 25.845V25.845Z" fill="#131E47"/>
<path d="M23.3458 32.2506C23.1923 32.2316 23.0372 32.2692 22.9095 32.3565C22.6561 32.5298 22.4014 32.7012 22.1444 32.8682C21.6244 33.2061 21.0025 32.6127 21.3115 32.0749L21.7934 31.242C21.8623 31.1412 21.9007 31.0227 21.9039 30.9006C21.9071 30.7786 21.8751 30.6582 21.8116 30.5539C21.7481 30.4496 21.6559 30.3658 21.546 30.3126C21.4362 30.2594 21.3133 30.2391 21.1921 30.2539C20.6572 30.3216 20.1601 30.5652 19.7789 30.9465C19.6337 31.092 19.1923 31.5339 18.9547 33.2176C18.8871 33.7012 18.8444 34.188 18.827 34.676C18.8248 34.7607 18.8396 34.845 18.8705 34.9239C18.9014 35.0028 18.9478 35.0746 19.007 35.1353C19.0661 35.196 19.1368 35.2442 19.2149 35.2771C19.293 35.31 19.3769 35.3269 19.4616 35.3269H19.4774C19.9658 35.3096 20.453 35.2672 20.9371 35.2C22.6216 34.962 23.0634 34.5201 23.2086 34.375C23.5916 33.9936 23.8347 33.4941 23.8983 32.9574C23.9187 32.7904 23.872 32.6222 23.7684 32.4896C23.6648 32.3571 23.5128 32.2711 23.3458 32.2506Z" fill="#131E47"/>
</svg>
