<svg width="121" height="134" viewBox="0 0 121 134" fill="none" xmlns="http://www.w3.org/2000/svg">
<circle cx="116.5" cy="129.5" r="4.5" transform="rotate(-180 116.5 129.5)" fill="#C34444" fill-opacity="0.3"/>
<circle cx="116.5" cy="118.5" r="4.5" transform="rotate(-180 116.5 118.5)" fill="#C34444" fill-opacity="0.3"/>
<circle cx="116.5" cy="107.5" r="4.5" transform="rotate(-180 116.5 107.5)" fill="#C34444" fill-opacity="0.3"/>
<circle cx="116.5" cy="96.5" r="4.5" transform="rotate(-180 116.5 96.5)" fill="#C34444" fill-opacity="0.3"/>
<circle cx="116.5" cy="85.5" r="4.5" transform="rotate(-180 116.5 85.5)" fill="#C34444" fill-opacity="0.3"/>
<circle cx="116.5" cy="74.5" r="4.5" transform="rotate(-180 116.5 74.5)" fill="#C34444" fill-opacity="0.3"/>
<circle cx="116.5" cy="63.5" r="4.5" transform="rotate(-180 116.5 63.5)" fill="#C34444" fill-opacity="0.3"/>
<circle cx="116.5" cy="52.5" r="4.5" transform="rotate(-180 116.5 52.5)" fill="#C34444" fill-opacity="0.3"/>
<circle cx="116.5" cy="41.5" r="4.5" transform="rotate(-180 116.5 41.5)" fill="#C34444" fill-opacity="0.3"/>
<circle cx="102.5" cy="129.5" r="4.5" transform="rotate(-180 102.5 129.5)" fill="#C34444" fill-opacity="0.3"/>
<circle cx="102.5" cy="118.5" r="4.5" transform="rotate(-180 102.5 118.5)" fill="#C34444" fill-opacity="0.3"/>
<circle cx="102.5" cy="107.5" r="4.5" transform="rotate(-180 102.5 107.5)" fill="#C34444" fill-opacity="0.3"/>
<circle cx="102.5" cy="96.5" r="4.5" transform="rotate(-180 102.5 96.5)" fill="#C34444" fill-opacity="0.3"/>
<circle cx="102.5" cy="85.5" r="4.5" transform="rotate(-180 102.5 85.5)" fill="#C34444" fill-opacity="0.3"/>
<circle cx="102.5" cy="74.5" r="4.5" transform="rotate(-180 102.5 74.5)" fill="#C34444" fill-opacity="0.3"/>
<circle cx="102.5" cy="63.5" r="4.5" transform="rotate(-180 102.5 63.5)" fill="#C34444" fill-opacity="0.3"/>
<circle cx="102.5" cy="52.5" r="4.5" transform="rotate(-180 102.5 52.5)" fill="#C34444" fill-opacity="0.3"/>
<circle cx="102.5" cy="41.5" r="4.5" transform="rotate(-180 102.5 41.5)" fill="#C34444" fill-opacity="0.3"/>
<circle cx="88.5" cy="129.5" r="4.5" transform="rotate(-180 88.5 129.5)" fill="#C34444" fill-opacity="0.3"/>
<circle cx="88.5" cy="118.5" r="4.5" transform="rotate(-180 88.5 118.5)" fill="#C34444" fill-opacity="0.3"/>
<circle cx="88.5" cy="107.5" r="4.5" transform="rotate(-180 88.5 107.5)" fill="#C34444" fill-opacity="0.3"/>
<circle cx="88.5" cy="96.5" r="4.5" transform="rotate(-180 88.5 96.5)" fill="#C34444" fill-opacity="0.3"/>
<circle cx="88.5" cy="85.5" r="4.5" transform="rotate(-180 88.5 85.5)" fill="#C34444" fill-opacity="0.3"/>
<circle cx="88.5" cy="74.5" r="4.5" transform="rotate(-180 88.5 74.5)" fill="#C34444" fill-opacity="0.3"/>
<circle cx="88.5" cy="63.5" r="4.5" transform="rotate(-180 88.5 63.5)" fill="#C34444" fill-opacity="0.3"/>
<circle cx="88.5" cy="52.5" r="4.5" transform="rotate(-180 88.5 52.5)" fill="#C34444" fill-opacity="0.3"/>
<circle cx="88.5" cy="41.5" r="4.5" transform="rotate(-180 88.5 41.5)" fill="#C34444" fill-opacity="0.3"/>
<circle cx="116.5" cy="28.5" r="4.5" transform="rotate(-180 116.5 28.5)" fill="#C34444" fill-opacity="0.3"/>
<circle cx="102.5" cy="28.5" r="4.5" transform="rotate(-180 102.5 28.5)" fill="#C34444" fill-opacity="0.3"/>
<circle cx="88.5" cy="28.5" r="4.5" transform="rotate(-180 88.5 28.5)" fill="#C34444" fill-opacity="0.3"/>
<circle cx="74.5" cy="28.5" r="4.5" transform="rotate(-180 74.5 28.5)" fill="#C34444" fill-opacity="0.3"/>
<circle cx="60.5" cy="28.5" r="4.5" transform="rotate(-180 60.5 28.5)" fill="#C34444" fill-opacity="0.3"/>
<circle cx="46.5" cy="28.5" r="4.5" transform="rotate(-180 46.5 28.5)" fill="#C34444" fill-opacity="0.3"/>
<circle cx="32.5" cy="28.5" r="4.5" transform="rotate(-180 32.5 28.5)" fill="#C34444" fill-opacity="0.3"/>
<circle cx="18.5" cy="28.5" r="4.5" transform="rotate(-180 18.5 28.5)" fill="#C34444" fill-opacity="0.3"/>
<circle cx="4.5" cy="28.5" r="4.5" transform="rotate(-180 4.5 28.5)" fill="#C34444" fill-opacity="0.3"/>
<circle cx="116.5" cy="16.5" r="4.5" transform="rotate(-180 116.5 16.5)" fill="#C34444" fill-opacity="0.3"/>
<circle cx="102.5" cy="16.5" r="4.5" transform="rotate(-180 102.5 16.5)" fill="#C34444" fill-opacity="0.3"/>
<circle cx="88.5" cy="16.5" r="4.5" transform="rotate(-180 88.5 16.5)" fill="#C34444" fill-opacity="0.3"/>
<circle cx="74.5" cy="16.5" r="4.5" transform="rotate(-180 74.5 16.5)" fill="#C34444" fill-opacity="0.3"/>
<circle cx="60.5" cy="16.5" r="4.5" transform="rotate(-180 60.5 16.5)" fill="#C34444" fill-opacity="0.3"/>
<circle cx="46.5" cy="16.5" r="4.5" transform="rotate(-180 46.5 16.5)" fill="#C34444" fill-opacity="0.3"/>
<circle cx="32.5" cy="16.5" r="4.5" transform="rotate(-180 32.5 16.5)" fill="#C34444" fill-opacity="0.3"/>
<circle cx="18.5" cy="16.5" r="4.5" transform="rotate(-180 18.5 16.5)" fill="#C34444" fill-opacity="0.3"/>
<circle cx="4.5" cy="16.5" r="4.5" transform="rotate(-180 4.5 16.5)" fill="#C34444" fill-opacity="0.3"/>
<circle cx="116.5" cy="4.5" r="4.5" transform="rotate(-180 116.5 4.5)" fill="#C34444" fill-opacity="0.3"/>
<circle cx="102.5" cy="4.5" r="4.5" transform="rotate(-180 102.5 4.5)" fill="#C34444" fill-opacity="0.3"/>
<circle cx="88.5" cy="4.5" r="4.5" transform="rotate(-180 88.5 4.5)" fill="#C34444" fill-opacity="0.3"/>
<circle cx="74.5" cy="4.5" r="4.5" transform="rotate(-180 74.5 4.5)" fill="#C34444" fill-opacity="0.3"/>
<circle cx="60.5" cy="4.5" r="4.5" transform="rotate(-180 60.5 4.5)" fill="#C34444" fill-opacity="0.3"/>
<circle cx="46.5" cy="4.5" r="4.5" transform="rotate(-180 46.5 4.5)" fill="#C34444" fill-opacity="0.3"/>
<circle cx="32.5" cy="4.5" r="4.5" transform="rotate(-180 32.5 4.5)" fill="#C34444" fill-opacity="0.3"/>
<circle cx="4.5" cy="4.5" r="4.5" transform="rotate(-180 4.5 4.5)" fill="#C34444" fill-opacity="0.3"/>
<circle cx="18.5" cy="4.5" r="4.5" transform="rotate(-180 18.5 4.5)" fill="#C34444" fill-opacity="0.3"/>
</svg>
