<svg width="135" height="149" viewBox="0 0 135 149" fill="none" xmlns="http://www.w3.org/2000/svg">
<circle cx="112.5" cy="144.5" r="4.5" transform="rotate(-180 112.5 144.5)" fill="#C0D7FC"/>
<circle cx="112.5" cy="130.5" r="4.5" transform="rotate(-180 112.5 130.5)" fill="#C0D7FC"/>
<circle cx="112.5" cy="116.5" r="4.5" transform="rotate(-180 112.5 116.5)" fill="#C0D7FC"/>
<circle cx="112.5" cy="102.5" r="4.5" transform="rotate(-180 112.5 102.5)" fill="#C0D7FC"/>
<circle cx="112.5" cy="88.5" r="4.5" transform="rotate(-180 112.5 88.5)" fill="#C0D7FC"/>
<circle cx="112.5" cy="74.5" r="4.5" transform="rotate(-180 112.5 74.5)" fill="#C0D7FC"/>
<circle cx="112.5" cy="60.5" r="4.5" transform="rotate(-180 112.5 60.5)" fill="#C0D7FC"/>
<circle cx="112.5" cy="46.5" r="4.5" transform="rotate(-180 112.5 46.5)" fill="#C0D7FC"/>
<circle cx="130.5" cy="144.5" r="4.5" transform="rotate(-180 130.5 144.5)" fill="#C0D7FC"/>
<circle cx="130.5" cy="130.5" r="4.5" transform="rotate(-180 130.5 130.5)" fill="#C0D7FC"/>
<circle cx="130.5" cy="116.5" r="4.5" transform="rotate(-180 130.5 116.5)" fill="#C0D7FC"/>
<circle cx="130.5" cy="102.5" r="4.5" transform="rotate(-180 130.5 102.5)" fill="#C0D7FC"/>
<circle cx="130.5" cy="88.5" r="4.5" transform="rotate(-180 130.5 88.5)" fill="#C0D7FC"/>
<circle cx="130.5" cy="74.5" r="4.5" transform="rotate(-180 130.5 74.5)" fill="#C0D7FC"/>
<circle cx="130.5" cy="60.5" r="4.5" transform="rotate(-180 130.5 60.5)" fill="#C0D7FC"/>
<circle cx="130.5" cy="46.5" r="4.5" transform="rotate(-180 130.5 46.5)" fill="#C0D7FC"/>
<circle cx="94.5" cy="144.5" r="4.5" transform="rotate(-180 94.5 144.5)" fill="#C0D7FC"/>
<circle cx="94.5" cy="130.5" r="4.5" transform="rotate(-180 94.5 130.5)" fill="#C0D7FC"/>
<circle cx="94.5" cy="116.5" r="4.5" transform="rotate(-180 94.5 116.5)" fill="#C0D7FC"/>
<circle cx="94.5" cy="102.5" r="4.5" transform="rotate(-180 94.5 102.5)" fill="#C0D7FC"/>
<circle cx="94.5" cy="88.5" r="4.5" transform="rotate(-180 94.5 88.5)" fill="#C0D7FC"/>
<circle cx="94.5" cy="74.5" r="4.5" transform="rotate(-180 94.5 74.5)" fill="#C0D7FC"/>
<circle cx="94.5" cy="60.5" r="4.5" transform="rotate(-180 94.5 60.5)" fill="#C0D7FC"/>
<circle cx="94.5" cy="46.5" r="4.5" transform="rotate(-180 94.5 46.5)" fill="#C0D7FC"/>
<circle cx="130.5" cy="32.5" r="4.5" transform="rotate(-180 130.5 32.5)" fill="#C0D7FC"/>
<circle cx="112.5" cy="32.5" r="4.5" transform="rotate(-180 112.5 32.5)" fill="#C0D7FC"/>
<circle cx="94.5" cy="32.5" r="4.5" transform="rotate(-180 94.5 32.5)" fill="#C0D7FC"/>
<circle cx="76.5" cy="32.5" r="4.5" transform="rotate(-180 76.5 32.5)" fill="#C0D7FC"/>
<circle cx="58.5" cy="32.5" r="4.5" transform="rotate(-180 58.5 32.5)" fill="#C0D7FC"/>
<circle cx="40.5" cy="32.5" r="4.5" transform="rotate(-180 40.5 32.5)" fill="#C0D7FC"/>
<circle cx="22.5" cy="32.5" r="4.5" transform="rotate(-180 22.5 32.5)" fill="#C0D7FC"/>
<circle cx="4.5" cy="32.5" r="4.5" transform="rotate(-180 4.5 32.5)" fill="#C0D7FC"/>
<circle cx="130.5" cy="4.5" r="4.5" transform="rotate(-180 130.5 4.5)" fill="#C0D7FC"/>
<circle cx="112.5" cy="4.5" r="4.5" transform="rotate(-180 112.5 4.5)" fill="#C0D7FC"/>
<circle cx="94.5" cy="4.5" r="4.5" transform="rotate(-180 94.5 4.5)" fill="#C0D7FC"/>
<circle cx="76.5" cy="4.5" r="4.5" transform="rotate(-180 76.5 4.5)" fill="#C0D7FC"/>
<circle cx="58.5" cy="4.5" r="4.5" transform="rotate(-180 58.5 4.5)" fill="#C0D7FC"/>
<circle cx="40.5" cy="4.5" r="4.5" transform="rotate(-180 40.5 4.5)" fill="#C0D7FC"/>
<circle cx="22.5" cy="4.5" r="4.5" transform="rotate(-180 22.5 4.5)" fill="#C0D7FC"/>
<circle cx="4.5" cy="4.5" r="4.5" transform="rotate(-180 4.5 4.5)" fill="#C0D7FC"/>
<circle cx="130.5" cy="18.5" r="4.5" transform="rotate(-180 130.5 18.5)" fill="#C0D7FC"/>
<circle cx="112.5" cy="18.5" r="4.5" transform="rotate(-180 112.5 18.5)" fill="#C0D7FC"/>
<circle cx="94.5" cy="18.5" r="4.5" transform="rotate(-180 94.5 18.5)" fill="#C0D7FC"/>
<circle cx="76.5" cy="18.5" r="4.5" transform="rotate(-180 76.5 18.5)" fill="#C0D7FC"/>
<circle cx="58.5" cy="18.5" r="4.5" transform="rotate(-180 58.5 18.5)" fill="#C0D7FC"/>
<circle cx="40.5" cy="18.5" r="4.5" transform="rotate(-180 40.5 18.5)" fill="#C0D7FC"/>
<circle cx="22.5" cy="18.5" r="4.5" transform="rotate(-180 22.5 18.5)" fill="#C0D7FC"/>
<circle cx="4.5" cy="18.5" r="4.5" transform="rotate(-180 4.5 18.5)" fill="#C0D7FC"/>
</svg>
