<svg width="139" height="36" viewBox="0 0 139 36" fill="none" xmlns="http://www.w3.org/2000/svg">
<path d="M44.4574 28.0694L46.1868 24.0528C48.0556 25.4474 50.5381 26.1727 52.9927 26.1727C54.8058 26.1727 55.9494 25.4753 55.9494 24.4154C55.9215 21.4587 45.099 23.7739 45.0153 16.3543C44.9874 12.5887 48.3346 9.68783 53.0764 9.68783C55.8936 9.68783 58.7108 10.3852 60.7191 11.9751L59.1013 16.0754C57.2604 14.9038 54.9731 14.067 52.7975 14.067C51.3191 14.067 50.3429 14.7644 50.3429 15.657C50.3708 18.5578 61.277 16.9679 61.3886 24.0528C61.3886 27.902 58.1251 30.6077 53.439 30.6077C50.0082 30.6077 46.8562 29.7988 44.4574 28.0694ZM110.815 22.6023C109.951 24.1086 108.333 25.1406 106.464 25.1406C103.702 25.1406 101.471 22.9092 101.471 20.1478C101.471 17.3863 103.702 15.1549 106.464 15.1549C108.333 15.1549 109.951 16.1869 110.815 17.6932L115.585 15.0433C113.8 11.8635 110.369 9.68783 106.464 9.68783C100.69 9.68783 96.004 14.3739 96.004 20.1478C96.004 25.9216 100.69 30.6077 106.464 30.6077C110.397 30.6077 113.8 28.4599 115.585 25.2522L110.815 22.6023ZM63.7874 1.01306H69.7565V30.2172H63.7874V1.01306ZM117.928 1.01306V30.2172H123.897V21.4587L130.982 30.2172H138.625L129.615 19.813L137.955 10.1062H130.647L123.897 18.1673V1.01306H117.928ZM87.4965 22.6581C86.6319 24.0807 84.8467 25.1406 82.8384 25.1406C80.077 25.1406 77.8455 22.9092 77.8455 20.1478C77.8455 17.3863 80.077 15.1549 82.8384 15.1549C84.8467 15.1549 86.6319 16.2706 87.4965 17.721V22.6581ZM87.4965 10.1062V12.4771C86.5203 10.8314 84.0936 9.68783 81.5553 9.68783C76.3114 9.68783 72.1832 14.3181 72.1832 20.1199C72.1832 25.9216 76.3114 30.6077 81.5553 30.6077C84.0936 30.6077 86.5203 29.4641 87.4965 27.8184V30.1893H93.4657V10.1062H87.4965Z" fill="black"/>
<path d="M7.55481 22.6304C7.55481 24.6666 5.90912 26.3123 3.87292 26.3123C1.83672 26.3123 0.191025 24.6666 0.191025 22.6304C0.191025 20.5942 1.83672 18.9485 3.87292 18.9485H7.55481V22.6304ZM9.39576 22.6304C9.39576 20.5942 11.0415 18.9485 13.0777 18.9485C15.1139 18.9485 16.7596 20.5942 16.7596 22.6304V31.8351C16.7596 33.8713 15.1139 35.517 13.0777 35.517C11.0415 35.517 9.39576 33.8713 9.39576 31.8351V22.6304Z" fill="#E01E5A"/>
<path d="M13.0777 7.84694C11.0415 7.84694 9.39576 6.20124 9.39576 4.16505C9.39576 2.12885 11.0415 0.483154 13.0777 0.483154C15.1139 0.483154 16.7595 2.12885 16.7595 4.16505V7.84694H13.0777ZM13.0777 9.71578C15.1139 9.71578 16.7595 11.3615 16.7595 13.3977C16.7595 15.4339 15.1139 17.0796 13.0777 17.0796H3.84503C1.80883 17.0796 0.163132 15.4339 0.163132 13.3977C0.163132 11.3615 1.80883 9.71578 3.84503 9.71578H13.0777Z" fill="#36C5F0"/>
<path d="M27.8331 13.3977C27.8331 11.3615 29.4788 9.71578 31.515 9.71578C33.5512 9.71578 35.1969 11.3615 35.1969 13.3977C35.1969 15.4339 33.5512 17.0796 31.515 17.0796H27.8331V13.3977ZM25.9922 13.3977C25.9922 15.4339 24.3465 17.0796 22.3103 17.0796C20.2741 17.0796 18.6284 15.4339 18.6284 13.3977V4.16505C18.6284 2.12885 20.2741 0.483154 22.3103 0.483154C24.3465 0.483154 25.9922 2.12885 25.9922 4.16505V13.3977Z" fill="#2EB67D"/>
<path d="M22.3103 28.1532C24.3465 28.1532 25.9922 29.7989 25.9922 31.8351C25.9922 33.8713 24.3465 35.517 22.3103 35.517C20.2741 35.517 18.6284 33.8713 18.6284 31.8351V28.1532H22.3103ZM22.3103 26.3123C20.2741 26.3123 18.6284 24.6666 18.6284 22.6304C18.6284 20.5942 20.2741 18.9485 22.3103 18.9485H31.5429C33.5791 18.9485 35.2248 20.5942 35.2248 22.6304C35.2248 24.6666 33.5791 26.3123 31.5429 26.3123H22.3103Z" fill="#ECB22E"/>
</svg>
