<svg width="126" height="24" viewBox="0 0 126 24" fill="none" xmlns="http://www.w3.org/2000/svg">
<path d="M20 7.53125C19.4167 7.79167 18.7865 7.96875 18.1094 8.0625C18.8177 7.64583 19.3021 7.03646 19.5625 6.23438C18.8854 6.63021 18.1875 6.89583 17.4688 7.03125C16.8333 6.34375 16.0365 6 15.0781 6C14.1719 6 13.3984 6.32031 12.7578 6.96094C12.1172 7.60156 11.7969 8.375 11.7969 9.28125C11.7969 9.58333 11.8229 9.83333 11.875 10.0312C10.5312 9.95833 9.27083 9.61979 8.09375 9.01562C6.91667 8.41146 5.91667 7.60417 5.09375 6.59375C4.79167 7.11458 4.64062 7.66667 4.64062 8.25C4.64062 9.4375 5.11458 10.349 6.0625 10.9844C5.57292 10.974 5.05208 10.8385 4.5 10.5781V10.6094C4.5 11.3906 4.76042 12.0859 5.28125 12.6953C5.80208 13.3047 6.44271 13.6823 7.20312 13.8281C6.90104 13.9115 6.63542 13.9531 6.40625 13.9531C6.27083 13.9531 6.06771 13.9323 5.79688 13.8906C6.01562 14.5469 6.40365 15.0885 6.96094 15.5156C7.51823 15.9427 8.15104 16.1615 8.85938 16.1719C7.65104 17.1094 6.29167 17.5781 4.78125 17.5781C4.51042 17.5781 4.25 17.5625 4 17.5312C5.54167 18.5104 7.21875 19 9.03125 19C10.1979 19 11.2917 18.8151 12.3125 18.4453C13.3333 18.0755 14.2083 17.5807 14.9375 16.9609C15.6667 16.3411 16.2943 15.6276 16.8203 14.8203C17.3464 14.013 17.737 13.1693 17.9922 12.2891C18.2474 11.4089 18.375 10.5312 18.375 9.65625C18.375 9.46875 18.3698 9.32812 18.3594 9.23438C19.0156 8.76562 19.5625 8.19792 20 7.53125ZM24 4.5V19.5C24 20.7396 23.5599 21.7995 22.6797 22.6797C21.7995 23.5599 20.7396 24 19.5 24H4.5C3.26042 24 2.20052 23.5599 1.32031 22.6797C0.440104 21.7995 0 20.7396 0 19.5V4.5C0 3.26042 0.440104 2.20052 1.32031 1.32031C2.20052 0.440104 3.26042 0 4.5 0H19.5C20.7396 0 21.7995 0.440104 22.6797 1.32031C23.5599 2.20052 24 3.26042 24 4.5Z" fill="#0B122B"/>
<path d="M63 9.1425C62.4349 9.14271 61.8825 9.31048 61.4128 9.6246C60.943 9.93871 60.5769 10.3851 60.3608 10.9072C60.1447 11.4294 60.0882 12.0039 60.1986 12.5581C60.309 13.1124 60.5812 13.6214 60.9809 14.0209C61.3806 14.4205 61.8897 14.6925 62.444 14.8027C62.9983 14.9128 63.5728 14.8562 64.0948 14.6399C64.6169 14.4236 65.0631 14.0573 65.3771 13.5874C65.691 13.1175 65.8586 12.5651 65.8586 12C65.858 11.2421 65.5566 10.5155 65.0206 9.97969C64.4846 9.4439 63.7579 9.14278 63 9.1425ZM69.6809 6.94607C69.5354 6.57742 69.3158 6.24258 69.0355 5.96234C68.7553 5.6821 68.4204 5.46243 68.0518 5.31696C66.9268 4.87286 64.2482 4.9725 63 4.9725C61.7518 4.9725 59.0759 4.86911 57.9477 5.31696C57.579 5.46243 57.2442 5.6821 56.9639 5.96234C56.6837 6.24258 56.464 6.57742 56.3186 6.94607C55.875 8.07107 55.9741 10.7523 55.9741 11.9995C55.9741 13.2466 55.875 15.9246 56.3207 17.0534C56.4662 17.422 56.6859 17.7569 56.9661 18.0371C57.2463 18.3174 57.5812 18.537 57.9498 18.6825C59.0748 19.1266 61.7534 19.027 63.0021 19.027C64.2509 19.027 66.9257 19.1304 68.0539 18.6825C68.4226 18.537 68.7574 18.3174 69.0377 18.0371C69.3179 17.7569 69.5376 17.422 69.683 17.0534C70.1304 15.9284 70.0275 13.2471 70.0275 12C70.0275 10.7529 70.1304 8.07536 69.683 6.94661L69.6809 6.94607ZM63 16.3929C62.1312 16.3929 61.2819 16.1352 60.5595 15.6525C59.8371 15.1698 59.274 14.4838 58.9415 13.6811C58.609 12.8784 58.5221 11.9951 58.6916 11.143C58.861 10.2909 59.2794 9.50813 59.8938 8.89378C60.5081 8.27943 61.2909 7.86105 62.143 7.69155C62.9951 7.52205 63.8784 7.60904 64.6811 7.94153C65.4838 8.27401 66.1698 8.83706 66.6525 9.55946C67.1352 10.2819 67.3929 11.1312 67.3929 12C67.3936 12.5771 67.2804 13.1486 67.0599 13.6819C66.8394 14.2152 66.5158 14.6997 66.1078 15.1078C65.6997 15.5158 65.2152 15.8394 64.6819 16.0599C64.1486 16.2804 63.5771 16.3936 63 16.3929ZM67.5739 8.44821C67.3711 8.44832 67.1728 8.38827 67.0041 8.27567C66.8354 8.16307 66.7039 8.00297 66.6262 7.81562C66.5486 7.62827 66.5282 7.42208 66.5677 7.22315C66.6072 7.02421 66.7048 6.84146 66.8482 6.69801C66.9915 6.55456 67.1742 6.45685 67.3732 6.41724C67.5721 6.37763 67.7783 6.39791 67.9657 6.4755C68.153 6.55309 68.3132 6.68451 68.4259 6.85314C68.5386 7.02177 68.5988 7.22004 68.5988 7.42286C68.5993 7.55754 68.5733 7.69101 68.5221 7.81562C68.471 7.94022 68.3958 8.0535 68.3008 8.14896C68.2058 8.24442 68.0928 8.32019 67.9685 8.37191C67.8441 8.42363 67.7108 8.45029 67.5761 8.45036L67.5739 8.44821ZM72.4286 0H53.5714C52.8894 0 52.2354 0.270918 51.7532 0.753154C51.2709 1.23539 51 1.88944 51 2.57143V21.4286C51 22.1106 51.2709 22.7646 51.7532 23.2468C52.2354 23.7291 52.8894 24 53.5714 24H72.4286C73.1106 24 73.7646 23.7291 74.2468 23.2468C74.7291 22.7646 75 22.1106 75 21.4286V2.57143C75 1.88944 74.7291 1.23539 74.2468 0.753154C73.7646 0.270918 73.1106 0 72.4286 0ZM71.5114 15.5357C71.4423 16.9088 71.1289 18.1254 70.1266 19.125C69.1243 20.1246 67.9088 20.4445 66.5373 20.5098C65.1225 20.5896 60.8807 20.5896 59.4659 20.5098C58.0929 20.4407 56.8805 20.1268 55.8766 19.125C54.8727 18.1232 54.5571 16.9061 54.4918 15.5357C54.412 14.1204 54.412 9.87804 54.4918 8.46429C54.5609 7.09125 54.8705 5.87464 55.8766 4.875C56.8827 3.87536 58.0982 3.55929 59.4659 3.49393C60.8807 3.41411 65.1225 3.41411 66.5373 3.49393C67.9104 3.56304 69.1264 3.87696 70.1266 4.87875C71.1268 5.88054 71.4461 7.09768 71.5114 8.47071C71.5913 9.88071 71.5913 14.1193 71.5114 15.5357Z" fill="#0B122B"/>
<path d="M123.333 0H104.667C103.2 0 102 1.2 102 2.66667V21.3333C102 22.8013 103.2 24 104.667 24H114V14.6667H111.333V11.3667H114V8.63333C114 5.748 115.616 3.72133 119.021 3.72133L121.425 3.724V7.19733H119.829C118.504 7.19733 118 8.192 118 9.11467V11.368H121.424L120.667 14.6667H118V24H123.333C124.8 24 126 22.8013 126 21.3333V2.66667C126 1.2 124.8 0 123.333 0Z" fill="#0B122B"/>
</svg>
