<svg width="120" height="16" viewBox="0 0 120 16" fill="none" xmlns="http://www.w3.org/2000/svg">
<path d="M8 0L9.79611 5.52786H15.6085L10.9062 8.94427L12.7023 14.4721L8 11.0557L3.29772 14.4721L5.09383 8.94427L0.391548 5.52786H6.20389L8 0Z" fill="#3111F2"/>
<path d="M34 0L35.7961 5.52786H41.6085L36.9062 8.94427L38.7023 14.4721L34 11.0557L29.2977 14.4721L31.0938 8.94427L26.3915 5.52786H32.2039L34 0Z" fill="#3111F2"/>
<path d="M60 0L61.7961 5.52786H67.6085L62.9062 8.94427L64.7023 14.4721L60 11.0557L55.2977 14.4721L57.0938 8.94427L52.3915 5.52786H58.2039L60 0Z" fill="#3111F2"/>
<path d="M86 0L87.7961 5.52786H93.6085L88.9062 8.94427L90.7023 14.4721L86 11.0557L81.2977 14.4721L83.0938 8.94427L78.3915 5.52786H84.2039L86 0Z" fill="#3111F2"/>
<path d="M112 0L113.796 5.52786H119.608L114.906 8.94427L116.702 14.4721L112 11.0557L107.298 14.4721L109.094 8.94427L104.392 5.52786H110.204L112 0Z" fill="#3111F2"/>
</svg>
