<svg width="139" height="40" viewBox="0 0 139 40" fill="none" xmlns="http://www.w3.org/2000/svg">
<path fill-rule="evenodd" clip-rule="evenodd" d="M127.778 34.1141H131.751L138.625 16.6941H134.692L131.851 25.3698L128.857 16.6938H124.468L129.694 29.2769L127.778 34.1141ZM108.058 20.8293V29.7588H104.05V16.6941H106.866L107.704 17.8353C108.794 16.9226 109.961 16.3892 111.306 16.3892C113.107 16.3892 114.477 16.9224 115.314 18.2421C116.531 17.1252 117.826 16.3892 119.475 16.3892C122.57 16.3892 124.371 17.988 124.371 22.326V29.7588H120.363V22.7828C120.363 20.7787 119.551 20.1949 118.257 20.1949C117.496 20.1949 116.862 20.3975 116.151 20.8543C116.203 21.3112 116.228 21.7928 116.228 22.326V29.7588H112.219V22.7828C112.219 20.7787 111.407 20.1949 110.088 20.1949C109.352 20.1949 108.743 20.3727 108.058 20.8293V20.8293ZM94.0785 21.9455H99.229C98.9496 20.2462 98.0362 19.4339 96.6666 19.4339C95.4991 19.4339 94.3836 20.1191 94.0787 21.9457L94.0785 21.9455ZM96.9457 30.0129C93.0894 30.0129 89.9941 28.1101 89.9941 23.0868C89.9941 18.3933 92.988 16.3644 96.4383 16.3644C100.599 16.3644 102.451 19.2813 102.451 23.8733H94.0532C94.3325 26.131 95.7281 26.7911 97.5801 26.7911C99.3713 26.7911 100.772 26.349 101.857 25.6195L101.312 28.7991C100.278 29.5984 99.0358 30.0129 96.9457 30.0129V30.0129ZM82.0204 26.6389C82.9333 26.6389 83.6185 26.4862 84.3287 25.9538V20.2715C83.6948 19.8903 83.061 19.7133 82.1475 19.7133C80.194 19.7133 79.0777 21.0323 79.0777 23.239C79.0777 25.396 80.2197 26.6394 82.0206 26.6394L82.0204 26.6389ZM85.1152 28.7953C84.0753 29.5818 82.8833 30.0634 81.1833 30.0634C77.6061 30.0634 75.0189 27.8565 75.0189 23.3153C75.0189 18.7996 77.987 16.3644 81.7921 16.3644C82.68 16.3644 83.5429 16.4913 84.3287 16.7955V11.25H88.3377V29.7588H85.8004L85.1152 28.7953ZM58.035 22.0214V12.3388H62.1952V21.9453C62.1952 25.3955 63.7425 26.1057 65.8738 26.1057C68.1826 26.1057 69.3747 25.0907 69.3747 21.9453V12.3388H73.5607V22.0214C73.5607 27.7296 71.0747 30.1143 65.6713 30.1143C60.6477 30.1143 58.0347 28.0593 58.0347 22.0214H58.035Z" fill="#645A53"/>
<path fill-rule="evenodd" clip-rule="evenodd" d="M47.4318 22.7472C47.2683 22.6134 47.0741 22.5222 46.8666 22.4818C45.6464 23.698 44.1573 24.9791 42.8352 25.8401C42.225 26.2456 41.4577 26.4482 40.9496 26.4482C39.7801 26.4482 39.272 25.3332 39.1193 23.5607C38.916 21.1801 38.7788 18.3285 38.7788 13.9212C38.7788 9.40094 37.7529 6.32802 35.02 6.08671C34.9023 6.07574 34.7842 6.06995 34.666 6.06938C32.9884 6.06938 32.1749 6.93032 31.1073 9.10906C30.1924 10.9829 28.7689 13.7184 26.1259 18.8853C23.838 23.3432 21.2964 27.2944 19.1102 30.03C18.5014 30.7883 18.0202 31.3092 17.5679 31.6054C17.2657 31.8043 16.9755 31.904 16.6704 31.904C15.8075 31.904 15.1775 31.1758 14.967 29.4801C14.9172 29.0773 14.8907 28.6199 14.8907 28.1048C14.8907 24.6097 16.2128 18.9359 18.4999 10.5776C20.1775 4.49872 19.4661 0.345703 15.8056 0.345703H15.7646L15.762 0.346426C14.9331 0.356059 14.246 0.656126 13.584 1.17727C12.932 1.69023 12.2797 2.79898 11.6708 4.2892C10.9845 5.96799 6.81077 14.34 0.167867 18.6529C0.0895989 20.2929 1.01798 21.932 2.89882 22.1097C4.61108 22.2718 5.82676 21.5503 7.39212 20.4986C7.18222 21.4346 6.97543 22.3712 6.77176 23.3085C6.65255 23.8559 6.57669 24.208 6.55429 24.3056C6.34767 25.245 6.18964 26.1945 6.08083 27.1502C5.14402 35.5227 9.02491 39.6543 13.5695 39.6543C14.3291 39.6543 15.0814 39.5637 15.8289 39.3739C20.8361 38.1043 25.6565 32.3607 31.3621 19.1387C31.2756 20.5769 31.2667 21.9202 31.3289 23.1669C31.7048 30.7447 34.7021 33.0181 38.9368 33.0181C42.1392 33.0181 45.1385 31.3468 46.6634 29.2697C47.7822 27.8006 48.2396 26.1794 48.2396 24.9132C48.2396 23.9304 47.9279 23.1455 47.4321 22.7472" fill="#EA5252"/>
</svg>
