<svg width="63" height="63" viewBox="0 0 63 63" fill="none" xmlns="http://www.w3.org/2000/svg">
<path d="M43.5781 17H18.7719C17.8859 17 17 17.9078 17 18.8157V39.2423C17 40.1502 17.8859 41.058 18.7719 41.058H27.6312V42.8737C27.6312 44.1345 26.0351 44.6894 24.0875 44.6894V46.0509H38.2625V44.6889C36.3144 44.6889 34.7187 44.134 34.7187 42.8732V41.0575H43.5781C44.464 41.0575 45.35 40.1497 45.35 39.2419V18.8157C45.35 17.9078 44.464 17 43.5781 17ZM44.405 39.2423C44.405 39.6147 43.941 40.0897 43.5781 40.0897H18.7719C18.4085 40.0897 17.945 39.6147 17.945 39.2423V37.4267H44.405V39.2423Z" fill="#F7936A"/>
<path d="M31.4432 31.9083C31.6879 31.9083 31.8864 31.705 31.8864 31.4542C31.8864 31.2033 31.6879 31 31.4432 31C31.1984 31 31 31.2033 31 31.4542C31 31.705 31.1984 31.9083 31.4432 31.9083Z" fill="black"/>
<rect width="63" height="63" rx="9" fill="#F7936A" fill-opacity="0.2"/>
</svg>
